<?xml version="1.0" encoding="utf-8"?>
<COLLADA xmlns="http://www.collada.org/2005/11/COLLADASchema" version="1.4.1">
  <asset><unit name="meter" meter="1"/><up_axis>Z_UP</up_axis></asset>
  <library_effects><effect id="trail_effect"><profile_COMMON><technique sid="common"><lambert><diffuse><color>0.48 0.31 0.16 1</color></diffuse></lambert></technique></profile_COMMON></effect></library_effects>
  <library_materials><material id="trail_material" name="trail_material"><instance_effect url="#trail_effect"/></material></library_materials>
  <library_geometries><geometry id="mountain_trail_mesh" name="mountain_trail_mesh"><mesh>
    <source id="trail_positions"><float_array id="trail_positions_array" count="1335">-4.9000 -0.1817 0.0380 -4.7886 -0.2134 0.0380 -4.6773 -0.2459 0.0380 -4.5659 -0.2790 0.0380 -4.4545 -0.3124 0.0380 -4.3432 -0.3461 0.0380 -4.2318 -0.3797 0.0380 -4.1205 -0.4131 0.0380 -4.0091 -0.4460 0.0380 -3.8977 -0.4782 0.0380 -3.7864 -0.5095 0.0380 -3.6750 -0.5397 0.0380 -3.5636 -0.5687 0.0380 -3.4523 -0.5962 0.0380 -3.3409 -0.6220 0.0380 -3.2295 -0.6460 0.0489 -3.1182 -0.6681 0.0723 -3.0068 -0.6880 0.0938 -2.8955 -0.7057 0.1133 -2.7841 -0.7211 0.1302 -2.6727 -0.7340 0.1444 -2.5614 -0.7444 0.1556 -2.4500 -0.7522 0.1639 -2.3386 -0.7573 0.1692 -2.2273 -0.7598 0.1718 -2.1159 -0.7595 0.1718 -2.0045 -0.7566 0.1696 -1.8932 -0.7510 0.1657 -1.7818 -0.7427 0.1604 -1.6705 -0.7319 0.1544 -1.5591 -0.7185 0.1482 -1.4477 -0.7027 0.1424 -1.3364 -0.6846 0.1377 -1.2250 -0.6642 0.1347 -1.1136 -0.6418 0.1339 -1.0023 -0.6175 0.1360 -0.8909 -0.5913 0.1413 -0.7795 -0.5636 0.1504 -0.6682 -0.5344 0.1634 -0.5568 -0.5039 0.1806 -0.4455 -0.4724 0.2019 -0.3341 -0.4401 0.2271 -0.2227 -0.4071 0.2558 -0.1114 -0.3736 0.2874 0.0000 -0.3400 0.3213 0.1114 -0.3064 0.3565 0.2227 -0.2729 0.3919 0.3341 -0.2399 0.4267 0.4455 -0.2076 0.4597 0.5568 -0.1761 0.4899 0.6682 -0.1456 0.5166 0.7795 -0.1164 0.5392 0.8909 -0.0887 0.5571 1.0023 -0.0625 0.5702 1.1136 -0.0382 0.5786 1.2250 -0.0158 0.5825 1.3364 0.0046 0.5823 1.4477 0.0227 0.5785 1.5591 0.0385 0.5719 1.6705 0.0519 0.5633 1.7818 0.0627 0.5533 1.8932 0.0710 0.5427 2.0045 0.0766 0.5323 2.1159 0.0795 0.5226 2.2273 0.0798 0.5143 2.3386 0.0773 0.5078 2.4500 0.0722 0.5034 2.5614 0.0644 0.5015 2.6727 0.0540 0.5022 2.7841 0.0411 0.5056 2.8955 0.0257 0.5118 3.0068 0.0080 0.5206 3.1182 -0.0119 0.5320 3.2295 -0.0340 0.5458 3.3409 -0.0580 0.5618 3.4523 -0.0838 0.5799 3.5636 -0.1113 0.5998 3.6750 -0.1403 0.6213 3.7864 -0.1705 0.6442 3.8977 -0.2018 0.6682 4.0091 -0.2340 0.6932 4.1205 -0.2669 0.7190 4.2318 -0.3003 0.7452 4.3432 -0.3339 0.7717 4.4545 -0.3676 0.7981 4.5659 -0.4010 0.8244 4.6773 -0.4341 0.8500 4.7886 -0.4666 0.8749 4.9000 -0.4983 0.8985 -4.9000 -0.0117 0.0380 -4.7886 -0.0434 0.0380 -4.6773 -0.0759 0.0380 -4.5659 -0.1090 0.0380 -4.4545 -0.1424 0.0380 -4.3432 -0.1761 0.0380 -4.2318 -0.2097 0.0380 -4.1205 -0.2431 0.0380 -4.0091 -0.2760 0.0380 -3.8977 -0.3082 0.0380 -3.7864 -0.3395 0.0380 -3.6750 -0.3697 0.0380 -3.5636 -0.3987 0.0380 -3.4523 -0.4262 0.0380 -3.3409 -0.4520 0.0380 -3.2295 -0.4760 0.0423 -3.1182 -0.4981 0.0629 -3.0068 -0.5180 0.0820 -2.8955 -0.5357 0.0991 -2.7841 -0.5511 0.1141 -2.6727 -0.5640 0.1266 -2.5614 -0.5744 0.1365 -2.4500 -0.5822 0.1439 -2.3386 -0.5873 0.1486 -2.2273 -0.5898 0.1509 -2.1159 -0.5895 0.1509 -2.0045 -0.5866 0.1490 -1.8932 -0.5810 0.1456 -1.7818 -0.5727 0.1411 -1.6705 -0.5619 0.1362 -1.5591 -0.5485 0.1313 -1.4477 -0.5327 0.1271 -1.3364 -0.5146 0.1243 -1.2250 -0.4942 0.1235 -1.1136 -0.4718 0.1252 -1.0023 -0.4475 0.1300 -0.8909 -0.4213 0.1383 -0.7795 -0.3936 0.1505 -0.6682 -0.3644 0.1668 -0.5568 -0.3339 0.1871 -0.4455 -0.3024 0.2112 -0.3341 -0.2701 0.2389 -0.2227 -0.2371 0.2694 -0.1114 -0.2036 0.3021 0.0000 -0.1700 0.3359 0.1114 -0.1364 0.3700 0.2227 -0.1029 0.4031 0.3341 -0.0699 0.4343 0.4455 -0.0376 0.4626 0.5568 -0.0061 0.4872 0.6682 0.0244 0.5076 0.7795 0.0536 0.5232 0.8909 0.0813 0.5341 1.0023 0.1075 0.5402 1.1136 0.1318 0.5418 1.2250 0.1542 0.5395 1.3364 0.1746 0.5338 1.4477 0.1927 0.5255 1.5591 0.2085 0.5152 1.6705 0.2219 0.5037 1.7818 0.2327 0.4918 1.8932 0.2410 0.4802 2.0045 0.2466 0.4695 2.1159 0.2495 0.4603 2.2273 0.2498 0.4531 2.3386 0.2473 0.4481 2.4500 0.2422 0.4458 2.5614 0.2344 0.4463 2.6727 0.2240 0.4497 2.7841 0.2111 0.4559 2.8955 0.1957 0.4650 3.0068 0.1780 0.4769 3.1182 0.1581 0.4912 3.2295 0.1360 0.5079 3.3409 0.1120 0.5267 3.4523 0.0862 0.5474 3.5636 0.0587 0.5696 3.6750 0.0297 0.5931 3.7864 -0.0005 0.6177 3.8977 -0.0318 0.6431 4.0091 -0.0640 0.6690 4.1205 -0.0969 0.6953 4.2318 -0.1303 0.7216 4.3432 -0.1639 0.7479 4.4545 -0.1976 0.7738 4.5659 -0.2310 0.7991 4.6773 -0.2641 0.8237 4.7886 -0.2966 0.8471 4.9000 -0.3283 0.8693 -4.9000 0.1583 0.0380 -4.7886 0.1266 0.0380 -4.6773 0.0941 0.0380 -4.5659 0.0610 0.0380 -4.4545 0.0276 0.0380 -4.3432 -0.0061 0.0380 -4.2318 -0.0397 0.0380 -4.1205 -0.0731 0.0380 -4.0091 -0.1060 0.0380 -3.8977 -0.1382 0.0380 -3.7864 -0.1695 0.0380 -3.6750 -0.1997 0.0380 -3.5636 -0.2287 0.0380 -3.4523 -0.2562 0.0380 -3.3409 -0.2820 0.0447 -3.2295 -0.3060 0.0635 -3.1182 -0.3281 0.0811 -3.0068 -0.3480 0.0971 -2.8955 -0.3657 0.1114 -2.7841 -0.3811 0.1237 -2.6727 -0.3940 0.1337 -2.5614 -0.4044 0.1415 -2.4500 -0.4122 0.1469 -2.3386 -0.4173 0.1500 -2.2273 -0.4198 0.1510 -2.1159 -0.4195 0.1501 -2.0045 -0.4166 0.1476 -1.8932 -0.4110 0.1439 -1.7818 -0.4027 0.1396 -1.6705 -0.3919 0.1351 -1.5591 -0.3785 0.1310 -1.4477 -0.3627 0.1281 -1.3364 -0.3446 0.1269 -1.2250 -0.3242 0.1280 -1.1136 -0.3018 0.1320 -1.0023 -0.2775 0.1393 -0.8909 -0.2513 0.1503 -0.7795 -0.2236 0.1653 -0.6682 -0.1944 0.1842 -0.5568 -0.1639 0.2068 -0.4455 -0.1324 0.2328 -0.3341 -0.1001 0.2616 -0.2227 -0.0671 0.2923 -0.1114 -0.0336 0.3241 0.0000 0.0000 0.3560 0.1114 0.0336 0.3869 0.2227 0.0671 0.4157 0.3341 0.1001 0.4417 0.4455 0.1324 0.4640 0.5568 0.1639 0.4822 0.6682 0.1944 0.4958 0.7795 0.2236 0.5048 0.8909 0.2513 0.5094 1.0023 0.2775 0.5097 1.1136 0.3018 0.5063 1.2250 0.3242 0.4997 1.3364 0.3446 0.4906 1.4477 0.3627 0.4797 1.5591 0.3785 0.4677 1.6705 0.3919 0.4554 1.7818 0.4027 0.4434 1.8932 0.4110 0.4324 2.0045 0.4166 0.4228 2.1159 0.4195 0.4151 2.2273 0.4198 0.4098 2.3386 0.4173 0.4070 2.4500 0.4122 0.4071 2.5614 0.4044 0.4101 2.6727 0.3940 0.4161 2.7841 0.3811 0.4250 2.8955 0.3657 0.4367 3.0068 0.3480 0.4511 3.1182 0.3281 0.4679 3.2295 0.3060 0.4868 3.3409 0.2820 0.5076 3.4523 0.2562 0.5300 3.5636 0.2287 0.5537 3.6750 0.1997 0.5784 3.7864 0.1695 0.6038 3.8977 0.1382 0.6297 4.0091 0.1060 0.6558 4.1205 0.0731 0.6818 4.2318 0.0397 0.7076 4.3432 0.0061 0.7330 4.4545 -0.0276 0.7576 4.5659 -0.0610 0.7813 4.6773 -0.0941 0.8040 4.7886 -0.1266 0.8254 4.9000 -0.1583 0.8453 -4.9000 0.3283 0.0380 -4.7886 0.2966 0.0380 -4.6773 0.2641 0.0380 -4.5659 0.2310 0.0380 -4.4545 0.1976 0.0380 -4.3432 0.1639 0.0380 -4.2318 0.1303 0.0380 -4.1205 0.0969 0.0380 -4.0091 0.0640 0.0380 -3.8977 0.0318 0.0380 -3.7864 0.0005 0.0380 -3.6750 -0.0297 0.0380 -3.5636 -0.0587 0.0548 -3.4523 -0.0862 0.0727 -3.3409 -0.1120 0.0897 -3.2295 -0.1360 0.1056 -3.1182 -0.1581 0.1200 -3.0068 -0.1780 0.1328 -2.8955 -0.1957 0.1438 -2.7841 -0.2111 0.1529 -2.6727 -0.2240 0.1599 -2.5614 -0.2344 0.1649 -2.4500 -0.2422 0.1677 -2.3386 -0.2473 0.1685 -2.2273 -0.2498 0.1675 -2.1159 -0.2495 0.1650 -2.0045 -0.2466 0.1613 -1.8932 -0.2410 0.1568 -1.7818 -0.2327 0.1521 -1.6705 -0.2219 0.1477 -1.5591 -0.2085 0.1442 -1.4477 -0.1927 0.1423 -1.3364 -0.1746 0.1425 -1.2250 -0.1542 0.1454 -1.1136 -0.1318 0.1515 -1.0023 -0.1075 0.1611 -0.8909 -0.0813 0.1745 -0.7795 -0.0536 0.1916 -0.6682 -0.0244 0.2122 -0.5568 0.0061 0.2361 -0.4455 0.0376 0.2625 -0.3341 0.0699 0.2908 -0.2227 0.1029 0.3201 -0.1114 0.1364 0.3494 0.0000 0.1700 0.3778 0.1114 0.2036 0.4043 0.2227 0.2371 0.4281 0.3341 0.2701 0.4486 0.4455 0.3024 0.4652 0.5568 0.3339 0.4776 0.6682 0.3644 0.4859 0.7795 0.3936 0.4900 0.8909 0.4213 0.4902 1.0023 0.4475 0.4871 1.1136 0.4718 0.4810 1.2250 0.4942 0.4727 1.3364 0.5146 0.4626 1.4477 0.5327 0.4515 1.5591 0.5485 0.4400 1.6705 0.5619 0.4287 1.7818 0.5727 0.4181 1.8932 0.5810 0.4087 2.0045 0.5866 0.4011 2.1159 0.5895 0.3955 2.2273 0.5898 0.3924 2.3386 0.5873 0.3920 2.4500 0.5822 0.3943 2.5614 0.5744 0.3996 2.6727 0.5640 0.4077 2.7841 0.5511 0.4188 2.8955 0.5357 0.4325 3.0068 0.5180 0.4487 3.1182 0.4981 0.4672 3.2295 0.4760 0.4876 3.3409 0.4520 0.5096 3.4523 0.4262 0.5329 3.5636 0.3987 0.5572 3.6750 0.3697 0.5822 3.7864 0.3395 0.6075 3.8977 0.3082 0.6329 4.0091 0.2760 0.6582 4.1205 0.2431 0.6830 4.2318 0.2097 0.7072 4.3432 0.1761 0.7307 4.4545 0.1424 0.7531 4.5659 0.1090 0.7745 4.6773 0.0759 0.7945 4.7886 0.0434 0.8131 4.9000 0.0117 0.8301 -4.9000 0.4983 0.0380 -4.7886 0.4666 0.0380 -4.6773 0.4341 0.0380 -4.5659 0.4010 0.0380 -4.4545 0.3676 0.0380 -4.3432 0.3339 0.0380 -4.2318 0.3003 0.0380 -4.1205 0.2669 0.0380 -4.0091 0.2340 0.0412 -3.8977 0.2018 0.0608 -3.7864 0.1705 0.0798 -3.6750 0.1403 0.0978 -3.5636 0.1113 0.1148 -3.4523 0.0838 0.1307 -3.3409 0.0580 0.1452 -3.2295 0.0340 0.1582 -3.1182 0.0119 0.1696 -3.0068 -0.0080 0.1792 -2.8955 -0.0257 0.1869 -2.7841 -0.0411 0.1927 -2.6727 -0.0540 0.1965 -2.5614 -0.0644 0.1983 -2.4500 -0.0722 0.1982 -2.3386 -0.0773 0.1965 -2.2273 -0.0798 0.1933 -2.1159 -0.0795 0.1889 -2.0045 -0.0766 0.1838 -1.8932 -0.0710 0.1784 -1.7818 -0.0627 0.1733 -1.6705 -0.0519 0.1690 -1.5591 -0.0385 0.1661 -1.4477 -0.0227 0.1652 -1.3364 -0.0046 0.1668 -1.2250 0.0158 0.1714 -1.1136 0.0382 0.1793 -1.0023 0.0625 0.1908 -0.8909 0.0887 0.2057 -0.7795 0.1164 0.2241 -0.6682 0.1456 0.2455 -0.5568 0.1761 0.2695 -0.4455 0.2076 0.2952 -0.3341 0.2399 0.3220 -0.2227 0.2729 0.3489 -0.1114 0.3064 0.3750 0.0000 0.3400 0.3996 0.1114 0.3736 0.4218 0.2227 0.4071 0.4412 0.3341 0.4401 0.4572 0.4455 0.4724 0.4696 0.5568 0.5039 0.4784 0.6682 0.5344 0.4835 0.7795 0.5636 0.4854 0.8909 0.5913 0.4841 1.0023 0.6175 0.4803 1.1136 0.6418 0.4743 1.2250 0.6642 0.4667 1.3364 0.6846 0.4580 1.4477 0.7027 0.4486 1.5591 0.7185 0.4392 1.6705 0.7319 0.4301 1.7818 0.7427 0.4218 1.8932 0.7510 0.4148 2.0045 0.7566 0.4094 2.1159 0.7595 0.4060 2.2273 0.7598 0.4048 2.3386 0.7573 0.4062 2.4500 0.7522 0.4102 2.5614 0.7444 0.4170 2.6727 0.7340 0.4266 2.7841 0.7211 0.4390 2.8955 0.7057 0.4539 3.0068 0.6880 0.4711 3.1182 0.6681 0.4905 3.2295 0.6460 0.5116 3.3409 0.6220 0.5342 3.4523 0.5962 0.5578 3.5636 0.5687 0.5821 3.6750 0.5397 0.6066 3.7864 0.5095 0.6312 3.8977 0.4782 0.6555 4.0091 0.4460 0.6791 4.1205 0.4131 0.7020 4.2318 0.3797 0.7239 4.3432 0.3461 0.7446 4.4545 0.3124 0.7641 4.5659 0.2790 0.7821 4.6773 0.2459 0.7987 4.7886 0.2134 0.8136 4.9000 0.1817 0.8269</float_array><technique_common><accessor source="#trail_positions_array" count="445" stride="3"><param name="X" type="float"/><param name="Y" type="float"/><param name="Z" type="float"/></accessor></technique_common></source>
    <vertices id="trail_vertices"><input semantic="POSITION" source="#trail_positions"/></vertices>
    <triangles material="trail_material" count="704"><input semantic="VERTEX" source="#trail_vertices" offset="0"/><p>0 1 90 0 90 89 1 2 91 1 91 90 2 3 92 2 92 91 3 4 93 3 93 92 4 5 94 4 94 93 5 6 95 5 95 94 6 7 96 6 96 95 7 8 97 7 97 96 8 9 98 8 98 97 9 10 99 9 99 98 10 11 100 10 100 99 11 12 101 11 101 100 12 13 102 12 102 101 13 14 103 13 103 102 14 15 104 14 104 103 15 16 105 15 105 104 16 17 106 16 106 105 17 18 107 17 107 106 18 19 108 18 108 107 19 20 109 19 109 108 20 21 110 20 110 109 21 22 111 21 111 110 22 23 112 22 112 111 23 24 113 23 113 112 24 25 114 24 114 113 25 26 115 25 115 114 26 27 116 26 116 115 27 28 117 27 117 116 28 29 118 28 118 117 29 30 119 29 119 118 30 31 120 30 120 119 31 32 121 31 121 120 32 33 122 32 122 121 33 34 123 33 123 122 34 35 124 34 124 123 35 36 125 35 125 124 36 37 126 36 126 125 37 38 127 37 127 126 38 39 128 38 128 127 39 40 129 39 129 128 40 41 130 40 130 129 41 42 131 41 131 130 42 43 132 42 132 131 43 44 133 43 133 132 44 45 134 44 134 133 45 46 135 45 135 134 46 47 136 46 136 135 47 48 137 47 137 136 48 49 138 48 138 137 49 50 139 49 139 138 50 51 140 50 140 139 51 52 141 51 141 140 52 53 142 52 142 141 53 54 143 53 143 142 54 55 144 54 144 143 55 56 145 55 145 144 56 57 146 56 146 145 57 58 147 57 147 146 58 59 148 58 148 147 59 60 149 59 149 148 60 61 150 60 150 149 61 62 151 61 151 150 62 63 152 62 152 151 63 64 153 63 153 152 64 65 154 64 154 153 65 66 155 65 155 154 66 67 156 66 156 155 67 68 157 67 157 156 68 69 158 68 158 157 69 70 159 69 159 158 70 71 160 70 160 159 71 72 161 71 161 160 72 73 162 72 162 161 73 74 163 73 163 162 74 75 164 74 164 163 75 76 165 75 165 164 76 77 166 76 166 165 77 78 167 77 167 166 78 79 168 78 168 167 79 80 169 79 169 168 80 81 170 80 170 169 81 82 171 81 171 170 82 83 172 82 172 171 83 84 173 83 173 172 84 85 174 84 174 173 85 86 175 85 175 174 86 87 176 86 176 175 87 88 177 87 177 176 89 90 179 89 179 178 90 91 180 90 180 179 91 92 181 91 181 180 92 93 182 92 182 181 93 94 183 93 183 182 94 95 184 94 184 183 95 96 185 95 185 184 96 97 186 96 186 185 97 98 187 97 187 186 98 99 188 98 188 187 99 100 189 99 189 188 100 101 190 100 190 189 101 102 191 101 191 190 102 103 192 102 192 191 103 104 193 103 193 192 104 105 194 104 194 193 105 106 195 105 195 194 106 107 196 106 196 195 107 108 197 107 197 196 108 109 198 108 198 197 109 110 199 109 199 198 110 111 200 110 200 199 111 112 201 111 201 200 112 113 202 112 202 201 113 114 203 113 203 202 114 115 204 114 204 203 115 116 205 115 205 204 116 117 206 116 206 205 117 118 207 117 207 206 118 119 208 118 208 207 119 120 209 119 209 208 120 121 210 120 210 209 121 122 211 121 211 210 122 123 212 122 212 211 123 124 213 123 213 212 124 125 214 124 214 213 125 126 215 125 215 214 126 127 216 126 216 215 127 128 217 127 217 216 128 129 218 128 218 217 129 130 219 129 219 218 130 131 220 130 220 219 131 132 221 131 221 220 132 133 222 132 222 221 133 134 223 133 223 222 134 135 224 134 224 223 135 136 225 135 225 224 136 137 226 136 226 225 137 138 227 137 227 226 138 139 228 138 228 227 139 140 229 139 229 228 140 141 230 140 230 229 141 142 231 141 231 230 142 143 232 142 232 231 143 144 233 143 233 232 144 145 234 144 234 233 145 146 235 145 235 234 146 147 236 146 236 235 147 148 237 147 237 236 148 149 238 148 238 237 149 150 239 149 239 238 150 151 240 150 240 239 151 152 241 151 241 240 152 153 242 152 242 241 153 154 243 153 243 242 154 155 244 154 244 243 155 156 245 155 245 244 156 157 246 156 246 245 157 158 247 157 247 246 158 159 248 158 248 247 159 160 249 159 249 248 160 161 250 160 250 249 161 162 251 161 251 250 162 163 252 162 252 251 163 164 253 163 253 252 164 165 254 164 254 253 165 166 255 165 255 254 166 167 256 166 256 255 167 168 257 167 257 256 168 169 258 168 258 257 169 170 259 169 259 258 170 171 260 170 260 259 171 172 261 171 261 260 172 173 262 172 262 261 173 174 263 173 263 262 174 175 264 174 264 263 175 176 265 175 265 264 176 177 266 176 266 265 178 179 268 178 268 267 179 180 269 179 269 268 180 181 270 180 270 269 181 182 271 181 271 270 182 183 272 182 272 271 183 184 273 183 273 272 184 185 274 184 274 273 185 186 275 185 275 274 186 187 276 186 276 275 187 188 277 187 277 276 188 189 278 188 278 277 189 190 279 189 279 278 190 191 280 190 280 279 191 192 281 191 281 280 192 193 282 192 282 281 193 194 283 193 283 282 194 195 284 194 284 283 195 196 285 195 285 284 196 197 286 196 286 285 197 198 287 197 287 286 198 199 288 198 288 287 199 200 289 199 289 288 200 201 290 200 290 289 201 202 291 201 291 290 202 203 292 202 292 291 203 204 293 203 293 292 204 205 294 204 294 293 205 206 295 205 295 294 206 207 296 206 296 295 207 208 297 207 297 296 208 209 298 208 298 297 209 210 299 209 299 298 210 211 300 210 300 299 211 212 301 211 301 300 212 213 302 212 302 301 213 214 303 213 303 302 214 215 304 214 304 303 215 216 305 215 305 304 216 217 306 216 306 305 217 218 307 217 307 306 218 219 308 218 308 307 219 220 309 219 309 308 220 221 310 220 310 309 221 222 311 221 311 310 222 223 312 222 312 311 223 224 313 223 313 312 224 225 314 224 314 313 225 226 315 225 315 314 226 227 316 226 316 315 227 228 317 227 317 316 228 229 318 228 318 317 229 230 319 229 319 318 230 231 320 230 320 319 231 232 321 231 321 320 232 233 322 232 322 321 233 234 323 233 323 322 234 235 324 234 324 323 235 236 325 235 325 324 236 237 326 236 326 325 237 238 327 237 327 326 238 239 328 238 328 327 239 240 329 239 329 328 240 241 330 240 330 329 241 242 331 241 331 330 242 243 332 242 332 331 243 244 333 243 333 332 244 245 334 244 334 333 245 246 335 245 335 334 246 247 336 246 336 335 247 248 337 247 337 336 248 249 338 248 338 337 249 250 339 249 339 338 250 251 340 250 340 339 251 252 341 251 341 340 252 253 342 252 342 341 253 254 343 253 343 342 254 255 344 254 344 343 255 256 345 255 345 344 256 257 346 256 346 345 257 258 347 257 347 346 258 259 348 258 348 347 259 260 349 259 349 348 260 261 350 260 350 349 261 262 351 261 351 350 262 263 352 262 352 351 263 264 353 263 353 352 264 265 354 264 354 353 265 266 355 265 355 354 267 268 357 267 357 356 268 269 358 268 358 357 269 270 359 269 359 358 270 271 360 270 360 359 271 272 361 271 361 360 272 273 362 272 362 361 273 274 363 273 363 362 274 275 364 274 364 363 275 276 365 275 365 364 276 277 366 276 366 365 277 278 367 277 367 366 278 279 368 278 368 367 279 280 369 279 369 368 280 281 370 280 370 369 281 282 371 281 371 370 282 283 372 282 372 371 283 284 373 283 373 372 284 285 374 284 374 373 285 286 375 285 375 374 286 287 376 286 376 375 287 288 377 287 377 376 288 289 378 288 378 377 289 290 379 289 379 378 290 291 380 290 380 379 291 292 381 291 381 380 292 293 382 292 382 381 293 294 383 293 383 382 294 295 384 294 384 383 295 296 385 295 385 384 296 297 386 296 386 385 297 298 387 297 387 386 298 299 388 298 388 387 299 300 389 299 389 388 300 301 390 300 390 389 301 302 391 301 391 390 302 303 392 302 392 391 303 304 393 303 393 392 304 305 394 304 394 393 305 306 395 305 395 394 306 307 396 306 396 395 307 308 397 307 397 396 308 309 398 308 398 397 309 310 399 309 399 398 310 311 400 310 400 399 311 312 401 311 401 400 312 313 402 312 402 401 313 314 403 313 403 402 314 315 404 314 404 403 315 316 405 315 405 404 316 317 406 316 406 405 317 318 407 317 407 406 318 319 408 318 408 407 319 320 409 319 409 408 320 321 410 320 410 409 321 322 411 321 411 410 322 323 412 322 412 411 323 324 413 323 413 412 324 325 414 324 414 413 325 326 415 325 415 414 326 327 416 326 416 415 327 328 417 327 417 416 328 329 418 328 418 417 329 330 419 329 419 418 330 331 420 330 420 419 331 332 421 331 421 420 332 333 422 332 422 421 333 334 423 333 423 422 334 335 424 334 424 423 335 336 425 335 425 424 336 337 426 336 426 425 337 338 427 337 427 426 338 339 428 338 428 427 339 340 429 339 429 428 340 341 430 340 430 429 341 342 431 341 431 430 342 343 432 342 432 431 343 344 433 343 433 432 344 345 434 344 434 433 345 346 435 345 435 434 346 347 436 346 436 435 347 348 437 347 437 436 348 349 438 348 438 437 349 350 439 349 439 438 350 351 440 350 440 439 351 352 441 351 441 440 352 353 442 352 442 441 353 354 443 353 443 442 354 355 444 354 444 443</p></triangles>
  </mesh></geometry></library_geometries>
  <library_visual_scenes><visual_scene id="Scene" name="Scene"><node id="mountain_trail" name="mountain_trail"><instance_geometry url="#mountain_trail_mesh"><bind_material><technique_common><instance_material symbol="trail_material" target="#trail_material"/></technique_common></bind_material></instance_geometry></node></visual_scene></library_visual_scenes>
  <scene><instance_visual_scene url="#Scene"/></scene>
</COLLADA>
