<?xml version="1.0" encoding="utf-8"?>
<COLLADA xmlns="http://www.collada.org/2005/11/COLLADASchema" version="1.4.1">
  <asset>
    <contributor><authoring_tool>mountain_car_sim procedural terrain</authoring_tool></contributor>
    <unit name="meter" meter="1"/>
    <up_axis>Z_UP</up_axis>
  </asset>
  <library_effects>
    <effect id="terrain_effect"><profile_COMMON><technique sid="common"><lambert><diffuse><color>0.33 0.55 0.26 1</color></diffuse></lambert></technique></profile_COMMON></effect>
  </library_effects>
  <library_materials>
    <material id="terrain_material" name="terrain_material"><instance_effect url="#terrain_effect"/></material>
  </library_materials>
  <library_geometries>
    <geometry id="mountain_terrain_mesh" name="mountain_terrain_mesh">
      <mesh>
        <source id="mountain_terrain_positions">
          <float_array id="mountain_terrain_positions_array" count="4557">-5.2000 -3.0000 0.4335 -4.9833 -3.0000 0.4660 -4.7667 -3.0000 0.5075 -4.5500 -3.0000 0.5552 -4.3333 -3.0000 0.6058 -4.1167 -3.0000 0.6554 -3.9000 -3.0000 0.7006 -3.6833 -3.0000 0.7383 -3.4667 -3.0000 0.7662 -3.2500 -3.0000 0.7833 -3.0333 -3.0000 0.7899 -2.8167 -3.0000 0.7874 -2.6000 -3.0000 0.7781 -2.3833 -3.0000 0.7654 -2.1667 -3.0000 0.7529 -1.9500 -3.0000 0.7443 -1.7333 -3.0000 0.7429 -1.5167 -3.0000 0.7512 -1.3000 -3.0000 0.7707 -1.0833 -3.0000 0.8016 -0.8667 -3.0000 0.8429 -0.6500 -3.0000 0.8925 -0.4333 -3.0000 0.9473 -0.2167 -3.0000 1.0039 0.0000 -3.0000 1.0583 0.2167 -3.0000 1.1072 0.4333 -3.0000 1.1476 0.6500 -3.0000 1.1777 0.8667 -3.0000 1.1967 1.0833 -3.0000 1.2052 1.3000 -3.0000 1.2048 1.5167 -3.0000 1.1983 1.7333 -3.0000 1.1890 1.9500 -3.0000 1.1807 2.1667 -3.0000 1.1769 2.3833 -3.0000 1.1807 2.6000 -3.0000 1.1944 2.8167 -3.0000 1.2189 3.0333 -3.0000 1.2543 3.2500 -3.0000 1.2992 3.4667 -3.0000 1.3511 3.6833 -3.0000 1.4068 3.9000 -3.0000 1.4626 4.1167 -3.0000 1.5149 4.3333 -3.0000 1.5602 4.5500 -3.0000 1.5960 4.7667 -3.0000 1.6207 4.9833 -3.0000 1.6339 5.2000 -3.0000 1.6366 -5.2000 -2.8000 0.3486 -4.9833 -2.8000 0.3868 -4.7667 -2.8000 0.4331 -4.5500 -2.8000 0.4845 -4.3333 -2.8000 0.5375 -4.1167 -2.8000 0.5883 -3.9000 -2.8000 0.6333 -3.6833 -2.8000 0.6700 -3.4667 -2.8000 0.6964 -3.2500 -2.8000 0.7119 -3.0333 -2.8000 0.7172 -2.8167 -2.8000 0.7141 -2.6000 -2.8000 0.7054 -2.3833 -2.8000 0.6944 -2.1667 -2.8000 0.6850 -1.9500 -2.8000 0.6806 -1.7333 -2.8000 0.6844 -1.5167 -2.8000 0.6985 -1.3000 -2.8000 0.7238 -1.0833 -2.8000 0.7603 -0.8667 -2.8000 0.8063 -0.6500 -2.8000 0.8594 -0.4333 -2.8000 0.9164 -0.2167 -2.8000 0.9735 0.0000 -2.8000 1.0270 0.2167 -2.8000 1.0736 0.4333 -2.8000 1.1108 0.6500 -2.8000 1.1371 0.8667 -2.8000 1.1521 1.0833 -2.8000 1.1569 1.3000 -2.8000 1.1536 1.5167 -2.8000 1.1451 1.7333 -2.8000 1.1350 1.9500 -2.8000 1.1270 2.1667 -2.8000 1.1246 2.3833 -2.8000 1.1305 2.6000 -2.8000 1.1467 2.8167 -2.8000 1.1737 3.0333 -2.8000 1.2111 3.2500 -2.8000 1.2570 3.4667 -2.8000 1.3088 3.6833 -2.8000 1.3630 3.9000 -2.8000 1.4158 4.1167 -2.8000 1.4637 4.3333 -2.8000 1.5036 4.5500 -2.8000 1.5331 4.7667 -2.8000 1.5512 4.9833 -2.8000 1.5580 5.2000 -2.8000 1.5549 -5.2000 -2.6000 0.2845 -4.9833 -2.6000 0.3261 -4.7667 -2.6000 0.3756 -4.5500 -2.6000 0.4297 -4.3333 -2.6000 0.4849 -4.1167 -2.6000 0.5374 -3.9000 -2.6000 0.5838 -3.6833 -2.6000 0.6214 -3.4667 -2.6000 0.6485 -3.2500 -2.6000 0.6646 -3.0333 -2.6000 0.6705 -2.8167 -2.6000 0.6681 -2.6000 -2.6000 0.6603 -2.3833 -2.6000 0.6506 -2.1667 -2.6000 0.6427 -1.9500 -2.6000 0.6401 -1.7333 -2.6000 0.6459 -1.5167 -2.6000 0.6620 -1.3000 -2.6000 0.6892 -1.0833 -2.6000 0.7272 -0.8667 -2.6000 0.7744 -0.6500 -2.6000 0.8282 -0.4333 -2.6000 0.8853 -0.2167 -2.6000 0.9418 0.0000 -2.6000 0.9942 0.2167 -2.6000 1.0391 0.4333 -2.6000 1.0742 0.6500 -2.6000 1.0981 0.8667 -2.6000 1.1107 1.0833 -2.6000 1.1130 1.3000 -2.6000 1.1073 1.5167 -2.6000 1.0967 1.7333 -2.6000 1.0848 1.9500 -2.6000 1.0752 2.1667 -2.6000 1.0715 2.3833 -2.6000 1.0763 2.6000 -2.6000 1.0913 2.8167 -2.6000 1.1172 3.0333 -2.6000 1.1532 3.2500 -2.6000 1.1975 3.4667 -2.6000 1.2472 3.6833 -2.6000 1.2989 3.9000 -2.6000 1.3489 4.1167 -2.6000 1.3935 4.3333 -2.6000 1.4299 4.5500 -2.6000 1.4557 4.7667 -2.6000 1.4702 4.9833 -2.6000 1.4734 5.2000 -2.6000 1.4670 -5.2000 -2.4000 0.2395 -4.9833 -2.4000 0.2817 -4.7667 -2.4000 0.3319 -4.5500 -2.4000 0.3873 -4.3333 -2.4000 0.4441 -4.1167 -2.4000 0.4985 -3.9000 -2.4000 0.5472 -3.6833 -2.4000 0.5872 -3.4667 -2.4000 0.6167 -3.2500 -2.4000 0.6350 -3.0333 -2.4000 0.6427 -2.8167 -2.4000 0.6416 -2.6000 -2.4000 0.6344 -2.3833 -2.4000 0.6247 -2.1667 -2.4000 0.6161 -1.9500 -2.4000 0.6123 -1.7333 -2.4000 0.6162 -1.5167 -2.4000 0.6301 -1.3000 -2.4000 0.6550 -1.0833 -2.4000 0.6907 -0.8667 -2.4000 0.7357 -0.6500 -2.4000 0.7876 -0.4333 -2.4000 0.8430 -0.2167 -2.4000 0.8984 0.0000 -2.4000 0.9500 0.2167 -2.4000 0.9944 0.4333 -2.4000 1.0292 0.6500 -2.4000 1.0527 0.8667 -2.4000 1.0648 1.0833 -2.4000 1.0663 1.3000 -2.4000 1.0593 1.5167 -2.4000 1.0467 1.7333 -2.4000 1.0322 1.9500 -2.4000 1.0195 2.1667 -2.4000 1.0121 2.3833 -2.4000 1.0128 2.6000 -2.4000 1.0236 2.8167 -2.4000 1.0453 3.0333 -2.4000 1.0773 3.2500 -2.4000 1.1181 3.4667 -2.4000 1.1648 3.6833 -2.4000 1.2142 3.9000 -2.4000 1.2625 4.1167 -2.4000 1.3061 4.3333 -2.4000 1.3419 4.5500 -2.4000 1.3676 4.7667 -2.4000 1.3820 4.9833 -2.4000 1.3852 5.2000 -2.4000 1.3786 -5.2000 -2.2000 0.2091 -4.9833 -2.2000 0.2481 -4.7667 -2.2000 0.2961 -4.5500 -2.2000 0.3501 -4.3333 -2.2000 0.4068 -4.1167 -2.2000 0.4625 -3.9000 -2.2000 0.5134 -3.6833 -2.2000 0.5564 -3.4667 -2.2000 0.5893 -3.2500 -2.2000 0.6109 -3.0333 -2.2000 0.6213 -2.8167 -2.2000 0.6221 -2.6000 -2.2000 0.6155 -2.3833 -2.2000 0.6048 -2.1667 -2.2000 0.5938 -1.9500 -2.2000 0.5862 -1.7333 -2.2000 0.5852 -1.5167 -2.2000 0.5934 -1.3000 -2.2000 0.6123 -1.0833 -2.2000 0.6421 -0.8667 -2.2000 0.6819 -0.6500 -2.2000 0.7295 -0.4333 -2.2000 0.7820 -0.2167 -2.2000 0.8357 0.0000 -2.2000 0.8870 0.2167 -2.2000 0.9324 0.4333 -2.2000 0.9689 0.6500 -2.2000 0.9946 0.8667 -2.2000 1.0087 1.0833 -2.2000 1.0117 1.3000 -2.2000 1.0053 1.5167 -2.2000 0.9921 1.7333 -2.2000 0.9756 1.9500 -2.2000 0.9594 2.1667 -2.2000 0.9471 2.3833 -2.2000 0.9421 2.6000 -2.2000 0.9467 2.8167 -2.2000 0.9620 3.0333 -2.2000 0.9882 3.2500 -2.2000 1.0240 3.4667 -2.2000 1.0672 3.6833 -2.2000 1.1146 3.9000 -2.2000 1.1625 4.1167 -2.2000 1.2073 4.3333 -2.2000 1.2455 4.5500 -2.2000 1.2746 4.7667 -2.2000 1.2929 4.9833 -2.2000 1.2999 5.2000 -2.2000 1.2965 -5.2000 -2.0000 0.1870 -4.9833 -2.0000 0.2190 -4.7667 -2.0000 0.2607 -4.5500 -2.0000 0.3100 -4.3333 -2.0000 0.3639 -4.1167 -2.0000 0.4185 -3.9000 -2.0000 0.4703 -3.6833 -2.0000 0.5158 -3.4667 -2.0000 0.5521 -3.2500 -2.0000 0.5776 -3.0333 -2.0000 0.5918 -2.8167 -2.0000 0.5952 -2.6000 -2.0000 0.5899 -2.3833 -2.0000 0.5787 -2.1667 -2.0000 0.5650 -1.9500 -2.0000 0.5528 -1.7333 -2.0000 0.5455 -1.5167 -2.0000 0.5461 -1.3000 -2.0000 0.5567 -1.0833 -2.0000 0.5783 -0.8667 -2.0000 0.6106 -0.6500 -2.0000 0.6521 -0.4333 -2.0000 0.7002 -0.2167 -2.0000 0.7518 0.0000 -2.0000 0.8031 0.2167 -2.0000 0.8504 0.4333 -2.0000 0.8905 0.6500 -2.0000 0.9208 0.8667 -2.0000 0.9400 1.0833 -2.0000 0.9477 1.3000 -2.0000 0.9449 1.5167 -2.0000 0.9338 1.7333 -2.0000 0.9173 1.9500 -2.0000 0.8990 2.1667 -2.0000 0.8827 2.3833 -2.0000 0.8720 2.6000 -2.0000 0.8697 2.8167 -2.0000 0.8778 3.0333 -2.0000 0.8970 3.2500 -2.0000 0.9268 3.4667 -2.0000 0.9656 3.6833 -2.0000 1.0108 3.9000 -2.0000 1.0588 4.1167 -2.0000 1.1059 4.3333 -2.0000 1.1486 4.5500 -2.0000 1.1836 4.7667 -2.0000 1.2087 4.9833 -2.0000 1.2228 5.2000 -2.0000 1.2259 -5.2000 -1.8000 0.1659 -4.9833 -1.8000 0.1877 -4.7667 -1.8000 0.2198 -4.5500 -1.8000 0.2608 -4.3333 -1.8000 0.3082 -4.1167 -1.8000 0.3589 -3.9000 -1.8000 0.4091 -3.6833 -1.8000 0.4552 -3.4667 -1.8000 0.4941 -3.2500 -1.8000 0.5234 -3.0333 -1.8000 0.5417 -2.8167 -1.8000 0.5490 -2.6000 -1.8000 0.5465 -2.3833 -1.8000 0.5363 -2.1667 -1.8000 0.5216 -1.9500 -1.8000 0.5060 -1.7333 -1.8000 0.4932 -1.5167 -1.8000 0.4865 -1.3000 -1.8000 0.4887 -1.0833 -1.8000 0.5015 -0.8667 -1.8000 0.5254 -0.6500 -1.8000 0.5598 -0.4333 -1.8000 0.6027 -0.2167 -1.8000 0.6515 0.0000 -1.8000 0.7027 0.2167 -1.8000 0.7525 0.4333 -1.8000 0.7974 0.6500 -1.8000 0.8343 0.8667 -1.8000 0.8610 1.0833 -1.8000 0.8764 1.3000 -1.8000 0.8806 1.5167 -1.8000 0.8750 1.7333 -1.8000 0.8619 1.9500 -1.8000 0.8446 2.1667 -1.8000 0.8267 2.3833 -1.8000 0.8121 2.6000 -1.8000 0.8040 2.8167 -1.8000 0.8052 3.0333 -1.8000 0.8171 3.2500 -1.8000 0.8403 3.4667 -1.8000 0.8739 3.6833 -1.8000 0.9158 3.9000 -1.8000 0.9631 4.1167 -1.8000 1.0122 4.3333 -1.8000 1.0593 4.5500 -1.8000 1.1009 4.7667 -1.8000 1.1340 4.9833 -1.8000 1.1569 5.2000 -1.8000 1.1686 -5.2000 -1.6000 0.1386 -4.9833 -1.6000 0.1487 -4.7667 -1.6000 0.1691 -4.5500 -1.6000 0.1992 -4.3333 -1.6000 0.2374 -4.1167 -1.6000 0.2811 -3.9000 -1.6000 0.3270 -3.6833 -1.6000 0.3715 -3.4667 -1.6000 0.4112 -3.2500 -1.6000 0.4434 -3.0333 -1.6000 0.4659 -2.8167 -1.6000 0.4779 -2.6000 -1.6000 0.4798 -2.3833 -1.6000 0.4728 -2.1667 -1.6000 0.4596 -1.9500 -1.6000 0.4434 -1.7333 -1.6000 0.4277 -1.5167 -1.6000 0.4162 -1.3000 -1.6000 0.4119 -1.0833 -1.6000 0.4174 -0.8667 -1.6000 0.4339 -0.6500 -1.6000 0.4616 -0.4333 -1.6000 0.4995 -0.2167 -1.6000 0.5454 0.0000 -1.6000 0.5963 0.2167 -1.6000 0.6486 0.4333 -1.6000 0.6986 0.6500 -1.6000 0.7429 0.8667 -1.6000 0.7786 1.0833 -1.6000 0.8037 1.3000 -1.6000 0.8175 1.5167 -1.6000 0.8204 1.7333 -1.6000 0.8141 1.9500 -1.6000 0.8012 2.1667 -1.6000 0.7850 2.3833 -1.6000 0.7693 2.6000 -1.6000 0.7578 2.8167 -1.6000 0.7537 3.0333 -1.6000 0.7593 3.2500 -1.6000 0.7758 3.4667 -1.6000 0.8034 3.6833 -1.6000 0.8408 3.9000 -1.6000 0.8857 4.1167 -1.6000 0.9348 4.3333 -1.6000 0.9846 4.5500 -1.6000 1.0313 4.7667 -1.6000 1.0714 4.9833 -1.6000 1.1026 5.2000 -1.6000 1.1231 -5.2000 -1.4000 0.0988 -4.9833 -1.4000 0.0979 -4.7667 -1.4000 0.1067 -4.5500 -1.4000 0.1254 -4.3333 -1.4000 0.1533 -4.1167 -1.4000 0.1885 -3.9000 -1.4000 0.2283 -3.6833 -1.4000 0.2694 -3.4667 -1.4000 0.3085 -3.2500 -1.4000 0.3424 -3.0333 -1.4000 0.3686 -2.8167 -1.4000 0.3856 -2.6000 -1.4000 0.3928 -2.3833 -1.4000 0.3909 -2.1667 -1.4000 0.3816 -1.9500 -1.4000 0.3676 -1.7333 -1.4000 0.3522 -1.5167 -1.4000 0.3391 -1.3000 -1.4000 0.3316 -1.0833 -1.4000 0.3327 -0.8667 -1.4000 0.3443 -0.6500 -1.4000 0.3674 -0.4333 -1.4000 0.4017 -0.2167 -1.4000 0.4456 0.0000 -1.4000 0.4966 0.2167 -1.4000 0.5515 0.4333 -1.4000 0.6066 0.6500 -1.4000 0.6581 0.8667 -1.4000 0.7028 1.0833 -1.4000 0.7380 1.3000 -1.4000 0.7623 1.5167 -1.4000 0.7751 1.7333 -1.4000 0.7775 1.9500 -1.4000 0.7712 2.1667 -1.4000 0.7594 2.3833 -1.4000 0.7454 2.6000 -1.4000 0.7330 2.8167 -1.4000 0.7257 3.0333 -1.4000 0.7265 3.2500 -1.4000 0.7372 3.4667 -1.4000 0.7588 3.6833 -1.4000 0.7908 3.9000 -1.4000 0.8315 4.1167 -1.4000 0.8784 4.3333 -1.4000 0.9281 4.5500 -1.4000 0.9769 4.7667 -1.4000 1.0212 4.9833 -1.4000 1.0582 5.2000 -1.4000 1.0857 -5.2000 -1.2000 0.0431 -4.9833 -1.2000 0.0336 -4.7667 -1.2000 0.0329 -4.5500 -1.2000 0.0421 -4.3333 -1.2000 0.0610 -4.1167 -1.2000 0.0885 -3.9000 -1.2000 0.1225 -3.6833 -1.2000 0.1601 -3.4667 -1.2000 0.1982 -3.2500 -1.2000 0.2334 -3.0333 -1.2000 0.2629 -2.8167 -1.2000 0.2847 -2.6000 -1.2000 0.2974 -2.3833 -1.2000 0.3011 -2.1667 -1.2000 0.2969 -1.9500 -1.2000 0.2869 -1.7333 -1.2000 0.2741 -1.5167 -1.2000 0.2621 -1.3000 -1.2000 0.2543 -1.0833 -1.2000 0.2541 -0.8667 -1.2000 0.2638 -0.6500 -1.2000 0.2850 -0.4333 -1.2000 0.3179 -0.2167 -1.2000 0.3616 0.0000 -1.2000 0.4139 0.2167 -1.2000 0.4718 0.4333 -1.2000 0.5317 0.6500 -1.2000 0.5898 0.8667 -1.2000 0.6425 1.0833 -1.2000 0.6868 1.3000 -1.2000 0.7205 1.5167 -1.2000 0.7426 1.7333 -1.2000 0.7534 1.9500 -1.2000 0.7542 2.1667 -1.2000 0.7474 2.3833 -1.2000 0.7364 2.6000 -1.2000 0.7246 2.8167 -1.2000 0.7159 3.0333 -1.2000 0.7133 3.2500 -1.2000 0.7194 3.4667 -1.2000 0.7356 3.6833 -1.2000 0.7620 3.9000 -1.2000 0.7977 4.1167 -1.2000 0.8406 4.3333 -1.2000 0.8877 4.5500 -1.2000 0.9357 4.7667 -1.2000 0.9810 4.9833 -1.2000 1.0206 5.2000 -1.2000 1.0518 -5.2000 -1.0000 0.0200 -4.9833 -1.0000 0.0200 -4.7667 -1.0000 0.0200 -4.5500 -1.0000 0.0200 -4.3333 -1.0000 0.0200 -4.1167 -1.0000 0.0200 -3.9000 -1.0000 0.0221 -3.6833 -1.0000 0.0582 -3.4667 -1.0000 0.0963 -3.2500 -1.0000 0.1334 -3.0333 -1.0000 0.1662 -2.8167 -1.0000 0.1923 -2.6000 -1.0000 0.2100 -2.3833 -1.0000 0.2188 -2.1667 -1.0000 0.2193 -1.9500 -1.0000 0.2133 -1.7333 -1.0000 0.2037 -1.5167 -1.0000 0.1939 -1.3000 -1.0000 0.1874 -1.0833 -1.0000 0.1879 -0.8667 -1.0000 0.1980 -0.6500 -1.0000 0.2196 -0.4333 -1.0000 0.2534 -0.2167 -1.0000 0.2986 0.0000 -1.0000 0.3534 0.2167 -1.0000 0.4148 0.4333 -1.0000 0.4793 0.6500 -1.0000 0.5430 0.8667 -1.0000 0.6021 1.0833 -1.0000 0.6532 1.3000 -1.0000 0.6940 1.5167 -1.0000 0.7228 1.7333 -1.0000 0.7397 1.9500 -1.0000 0.7456 2.1667 -1.0000 0.7427 2.3833 -1.0000 0.7339 2.6000 -1.0000 0.7229 2.8167 -1.0000 0.7132 3.0333 -1.0000 0.7083 3.2500 -1.0000 0.7109 3.4667 -1.0000 0.7226 3.6833 -1.0000 0.7442 3.9000 -1.0000 0.7751 4.1167 -1.0000 0.8135 4.3333 -1.0000 0.8569 4.5500 -1.0000 0.9023 4.7667 -1.0000 0.9462 4.9833 -1.0000 0.9855 5.2000 -1.0000 1.0176 -5.2000 -0.8000 0.0200 -4.9833 -0.8000 0.0200 -4.7667 -0.8000 0.0200 -4.5500 -0.8000 0.0200 -4.3333 -0.8000 0.0200 -4.1167 -0.8000 0.0200 -3.9000 -0.8000 0.0200 -3.6833 -0.8000 0.0200 -3.4667 -0.8000 0.0200 -3.2500 -0.8000 0.0591 -3.0333 -0.8000 0.0954 -2.8167 -0.8000 0.1252 -2.6000 -0.8000 0.1465 -2.3833 -0.8000 0.1587 -2.1667 -0.8000 0.1622 -1.9500 -0.8000 0.1588 -1.7333 -0.8000 0.1513 -1.5167 -0.8000 0.1430 -1.3000 -0.8000 0.1380 -1.0833 -0.8000 0.1397 -0.8667 -0.8000 0.1511 -0.6500 -0.8000 0.1743 -0.4333 -0.8000 0.2101 -0.2167 -0.8000 0.2579 0.0000 -0.8000 0.3157 0.2167 -0.8000 0.3807 0.4333 -0.8000 0.4491 0.6500 -0.8000 0.5167 0.8667 -0.8000 0.5797 1.0833 -0.8000 0.6346 1.3000 -0.8000 0.6787 1.5167 -0.8000 0.7106 1.7333 -0.8000 0.7298 1.9500 -0.8000 0.7374 2.1667 -0.8000 0.7355 2.3833 -0.8000 0.7271 2.6000 -0.8000 0.7157 2.8167 -0.8000 0.7049 3.0333 -0.8000 0.6982 3.2500 -0.8000 0.6983 3.4667 -0.8000 0.7071 3.6833 -0.8000 0.7254 3.9000 -0.8000 0.7527 4.1167 -0.8000 0.7877 4.3333 -0.8000 0.8280 4.5500 -0.8000 0.8705 4.7667 -0.8000 0.9121 4.9833 -0.8000 0.9497 5.2000 -0.8000 0.9805 -5.2000 -0.6000 0.0200 -4.9833 -0.6000 0.0200 -4.7667 -0.6000 0.0200 -4.5500 -0.6000 0.0200 -4.3333 -0.6000 0.0200 -4.1167 -0.6000 0.0200 -3.9000 -0.6000 0.0200 -3.6833 -0.6000 0.0200 -3.4667 -0.6000 0.0200 -3.2500 -0.6000 0.0222 -3.0333 -0.6000 0.0617 -2.8167 -0.6000 0.0938 -2.6000 -0.6000 0.1167 -2.3833 -0.6000 0.1298 -2.1667 -0.6000 0.1338 -1.9500 -0.6000 0.1305 -1.7333 -0.6000 0.1231 -1.5167 -0.6000 0.1151 -1.3000 -0.6000 0.1106 -1.0833 -0.6000 0.1132 -0.8667 -0.6000 0.1259 -0.6500 -0.6000 0.1509 -0.4333 -0.6000 0.1888 -0.2167 -0.6000 0.2389 0.0000 -0.6000 0.2991 0.2167 -0.6000 0.3662 0.4333 -0.6000 0.4363 0.6500 -0.6000 0.5051 0.8667 -0.6000 0.5686 1.0833 -0.6000 0.6231 1.3000 -0.6000 0.6662 1.5167 -0.6000 0.6965 1.7333 -0.6000 0.7138 1.9500 -0.6000 0.7193 2.1667 -0.6000 0.7154 2.3833 -0.6000 0.7051 2.6000 -0.6000 0.6921 2.8167 -0.6000 0.6801 3.0333 -0.6000 0.6723 3.2500 -0.6000 0.6717 3.4667 -0.6000 0.6797 3.6833 -0.6000 0.6972 3.9000 -0.6000 0.7236 4.1167 -0.6000 0.7574 4.3333 -0.6000 0.7962 4.5500 -0.6000 0.8370 4.7667 -0.6000 0.8767 4.9833 -0.6000 0.9121 5.2000 -0.6000 0.9406 -5.2000 -0.4000 0.0200 -4.9833 -0.4000 0.0200 -4.7667 -0.4000 0.0200 -4.5500 -0.4000 0.0200 -4.3333 -0.4000 0.0200 -4.1167 -0.4000 0.0200 -3.9000 -0.4000 0.0200 -3.6833 -0.4000 0.0200 -3.4667 -0.4000 0.0200 -3.2500 -0.4000 0.0265 -3.0333 -0.4000 0.0675 -2.8167 -0.4000 0.0995 -2.6000 -0.4000 0.1212 -2.3833 -0.4000 0.1322 -2.1667 -0.4000 0.1339 -1.9500 -0.4000 0.1285 -1.7333 -0.4000 0.1195 -1.5167 -0.4000 0.1107 -1.3000 -0.4000 0.1061 -1.0833 -0.4000 0.1093 -0.8667 -0.4000 0.1232 -0.6500 -0.4000 0.1495 -0.4333 -0.4000 0.1887 -0.2167 -0.4000 0.2397 0.0000 -0.4000 0.3001 0.2167 -0.4000 0.3665 0.4333 -0.4000 0.4348 0.6500 -0.4000 0.5006 0.8667 -0.4000 0.5598 1.0833 -0.4000 0.6092 1.3000 -0.4000 0.6465 1.5167 -0.4000 0.6706 1.7333 -0.4000 0.6820 1.9500 -0.4000 0.6823 2.1667 -0.4000 0.6741 2.3833 -0.4000 0.6608 2.6000 -0.4000 0.6462 2.8167 -0.4000 0.6340 3.0333 -0.4000 0.6272 3.2500 -0.4000 0.6283 3.4667 -0.4000 0.6388 3.6833 -0.4000 0.6587 3.9000 -0.4000 0.6874 4.1167 -0.4000 0.7228 4.3333 -0.4000 0.7625 4.5500 -0.4000 0.8032 4.7667 -0.4000 0.8418 4.9833 -0.4000 0.8752 5.2000 -0.4000 0.9008 -5.2000 -0.2000 0.0200 -4.9833 -0.2000 0.0200 -4.7667 -0.2000 0.0200 -4.5500 -0.2000 0.0200 -4.3333 -0.2000 0.0200 -4.1167 -0.2000 0.0200 -3.9000 -0.2000 0.0200 -3.6833 -0.2000 0.0200 -3.4667 -0.2000 0.0200 -3.2500 -0.2000 0.0657 -3.0333 -0.2000 0.1052 -2.8167 -0.2000 0.1340 -2.6000 -0.2000 0.1512 -2.3833 -0.2000 0.1576 -2.1667 -0.2000 0.1550 -1.9500 -0.2000 0.1463 -1.7333 -0.2000 0.1352 -1.5167 -0.2000 0.1256 -1.3000 -0.2000 0.1213 -1.0833 -0.2000 0.1256 -0.8667 -0.2000 0.1408 -0.6500 -0.2000 0.1682 -0.4333 -0.2000 0.2075 -0.2167 -0.2000 0.2573 0.0000 -0.2000 0.3149 0.2167 -0.2000 0.3766 0.4333 -0.2000 0.4384 0.6500 -0.2000 0.4962 0.8667 -0.2000 0.5461 1.0833 -0.2000 0.5855 1.3000 -0.2000 0.6126 1.5167 -0.2000 0.6270 1.7333 -0.2000 0.6299 1.9500 -0.2000 0.6233 2.1667 -0.2000 0.6105 2.3833 -0.2000 0.5950 2.6000 -0.2000 0.5805 2.8167 -0.2000 0.5705 3.0333 -0.2000 0.5677 3.2500 -0.2000 0.5742 3.4667 -0.2000 0.5905 3.6833 -0.2000 0.6164 3.9000 -0.2000 0.6503 4.1167 -0.2000 0.6900 4.3333 -0.2000 0.7324 4.5500 -0.2000 0.7743 4.7667 -0.2000 0.8123 4.9833 -0.2000 0.8435 5.2000 -0.2000 0.8659 -5.2000 0.0000 0.0200 -4.9833 0.0000 0.0200 -4.7667 0.0000 0.0200 -4.5500 0.0000 0.0200 -4.3333 0.0000 0.0200 -4.1167 0.0000 0.0200 -3.9000 0.0000 0.0200 -3.6833 0.0000 0.0263 -3.4667 0.0000 0.0803 -3.2500 0.0000 0.1256 -3.0333 0.0000 0.1601 -2.8167 0.0000 0.1824 -2.6000 0.0000 0.1929 -2.3833 0.0000 0.1931 -2.1667 0.0000 0.1856 -1.9500 0.0000 0.1738 -1.7333 0.0000 0.1614 -1.5167 0.0000 0.1523 -1.3000 0.0000 0.1497 -1.0833 0.0000 0.1562 -0.8667 0.0000 0.1734 -0.6500 0.0000 0.2016 -0.4333 0.0000 0.2399 -0.2167 0.0000 0.2864 0.0000 0.0000 0.3380 0.2167 0.0000 0.3913 0.4333 0.0000 0.4424 0.6500 0.0000 0.4877 0.8667 0.0000 0.5242 1.0833 0.0000 0.5500 1.3000 0.0000 0.5643 1.5167 0.0000 0.5674 1.7333 0.0000 0.5613 1.9500 0.0000 0.5485 2.1667 0.0000 0.5326 2.3833 0.0000 0.5171 2.6000 0.0000 0.5057 2.8167 0.0000 0.5013 3.0333 0.0000 0.5061 3.2500 0.0000 0.5211 3.4667 0.0000 0.5464 3.6833 0.0000 0.5807 3.9000 0.0000 0.6220 4.1167 0.0000 0.6673 4.3333 0.0000 0.7133 4.5500 0.0000 0.7565 4.7667 0.0000 0.7938 4.9833 0.0000 0.8228 5.2000 0.0000 0.8418 -5.2000 0.2000 0.0200 -4.9833 0.2000 0.0200 -4.7667 0.2000 0.0200 -4.5500 0.2000 0.0200 -4.3333 0.2000 0.0200 -4.1167 0.2000 0.0200 -3.9000 0.2000 0.0415 -3.6833 0.2000 0.0997 -3.4667 0.2000 0.1496 -3.2500 0.2000 0.1885 -3.0333 0.2000 0.2152 -2.8167 0.2000 0.2293 -2.6000 0.2000 0.2322 -2.3833 0.2000 0.2262 -2.1667 0.2000 0.2145 -1.9500 0.2000 0.2008 -1.7333 0.2000 0.1888 -1.5167 0.2000 0.1818 -1.3000 0.2000 0.1825 -1.0833 0.2000 0.1924 -0.8667 0.2000 0.2122 -0.6500 0.2000 0.2413 -0.4333 0.2000 0.2780 -0.2167 0.2000 0.3198 0.0000 0.2000 0.3637 0.2167 0.2000 0.4063 0.4333 0.2000 0.4444 0.6500 0.2000 0.4752 0.8667 0.2000 0.4968 1.0833 0.2000 0.5081 1.3000 0.2000 0.5095 1.5167 0.2000 0.5021 1.7333 0.2000 0.4886 1.9500 0.2000 0.4719 2.1667 0.2000 0.4556 2.3833 0.2000 0.4432 2.6000 0.2000 0.4379 2.8167 0.2000 0.4420 3.0333 0.2000 0.4568 3.2500 0.2000 0.4825 3.4667 0.2000 0.5183 3.6833 0.2000 0.5622 3.9000 0.2000 0.6113 4.1167 0.2000 0.6622 4.3333 0.2000 0.7114 4.5500 0.2000 0.7556 4.7667 0.2000 0.7919 4.9833 0.2000 0.8184 5.2000 0.2000 0.8344 -5.2000 0.4000 0.0200 -4.9833 0.4000 0.0200 -4.7667 0.4000 0.0200 -4.5500 0.4000 0.0200 -4.3333 0.4000 0.0200 -4.1167 0.4000 0.0530 -3.9000 0.4000 0.1142 -3.6833 0.4000 0.1678 -3.4667 0.4000 0.2108 -3.2500 0.4000 0.2415 -3.0333 0.4000 0.2593 -2.8167 0.4000 0.2651 -2.6000 0.4000 0.2610 -2.3833 0.4000 0.2500 -2.1667 0.4000 0.2356 -1.9500 0.4000 0.2215 -1.7333 0.4000 0.2113 -1.5167 0.4000 0.2077 -1.3000 0.4000 0.2125 -1.0833 0.4000 0.2266 -0.8667 0.4000 0.2495 -0.6500 0.4000 0.2797 -0.4333 0.4000 0.3151 -0.2167 0.4000 0.3526 0.0000 0.4000 0.3892 0.2167 0.4000 0.4218 0.4333 0.4000 0.4479 0.6500 0.4000 0.4655 0.8667 0.4000 0.4737 1.0833 0.4000 0.4727 1.3000 0.4000 0.4635 1.5167 0.4000 0.4484 1.7333 0.4000 0.4302 1.9500 0.4000 0.4124 2.1667 0.4000 0.3984 2.3833 0.4000 0.3914 2.6000 0.4000 0.3940 2.8167 0.4000 0.4079 3.0333 0.4000 0.4335 3.2500 0.4000 0.4702 3.4667 0.4000 0.5164 3.6833 0.4000 0.5691 3.9000 0.4000 0.6252 4.1167 0.4000 0.6809 4.3333 0.4000 0.7326 4.5500 0.4000 0.7771 4.7667 0.4000 0.8120 4.9833 0.4000 0.8363 5.2000 0.4000 0.8498 -5.2000 0.6000 0.0200 -4.9833 0.6000 0.0200 -4.7667 0.6000 0.0200 -4.5500 0.6000 0.0200 -4.3333 0.6000 0.0528 -4.1167 0.6000 0.1157 -3.9000 0.6000 0.1726 -3.6833 0.6000 0.2200 -3.4667 0.6000 0.2555 -3.2500 0.6000 0.2782 -3.0333 0.6000 0.2882 -2.8167 0.6000 0.2871 -2.6000 0.6000 0.2776 -2.3833 0.6000 0.2631 -2.1667 0.6000 0.2474 -1.9500 0.6000 0.2340 -1.7333 0.6000 0.2261 -1.5167 0.6000 0.2261 -1.3000 0.6000 0.2352 -1.0833 0.6000 0.2535 -0.8667 0.6000 0.2798 -0.6500 0.6000 0.3121 -0.4333 0.6000 0.3474 -0.2167 0.6000 0.3827 0.0000 0.6000 0.4148 0.2167 0.6000 0.4409 0.4333 0.6000 0.4589 0.6500 0.6000 0.4676 0.8667 0.6000 0.4669 1.0833 0.6000 0.4578 1.3000 0.6000 0.4421 1.5167 0.6000 0.4227 1.7333 0.6000 0.4028 1.9500 0.6000 0.3860 2.1667 0.6000 0.3756 2.3833 0.6000 0.3747 2.6000 0.6000 0.3852 2.8167 0.6000 0.4081 3.0333 0.6000 0.4434 3.2500 0.6000 0.4897 3.4667 0.6000 0.5444 3.6833 0.6000 0.6045 3.9000 0.6000 0.6661 4.1167 0.6000 0.7253 4.3333 0.6000 0.7786 4.5500 0.6000 0.8230 4.7667 0.6000 0.8567 4.9833 0.6000 0.8791 5.2000 0.6000 0.8909 -5.2000 0.8000 0.0200 -4.9833 0.8000 0.0200 -4.7667 0.8000 0.0200 -4.5500 0.8000 0.0364 -4.3333 0.8000 0.0995 -4.1167 0.8000 0.1591 -3.9000 0.8000 0.2113 -3.6833 0.8000 0.2533 -3.4667 0.8000 0.2830 -3.2500 0.8000 0.2998 -3.0333 0.8000 0.3045 -2.8167 0.8000 0.2990 -2.6000 0.8000 0.2863 -2.3833 0.8000 0.2699 -2.1667 0.8000 0.2537 -1.9500 0.8000 0.2411 -1.7333 0.8000 0.2353 -1.5167 0.8000 0.2383 -1.3000 0.8000 0.2509 -1.0833 0.8000 0.2730 -0.8667 0.8000 0.3028 -0.6500 0.8000 0.3381 -0.4333 0.8000 0.3755 -0.2167 0.8000 0.4118 0.0000 0.8000 0.4437 0.2167 0.8000 0.4683 0.4333 0.8000 0.4839 0.6500 0.8000 0.4896 0.8667 0.8000 0.4857 1.0833 0.8000 0.4737 1.3000 0.8000 0.4558 1.5167 0.8000 0.4354 1.7333 0.8000 0.4159 1.9500 0.8000 0.4010 2.1667 0.8000 0.3942 2.3833 0.8000 0.3981 2.6000 0.8000 0.4145 2.8167 0.8000 0.4441 3.0333 0.8000 0.4863 3.2500 0.8000 0.5392 3.4667 0.8000 0.6001 3.6833 0.8000 0.6652 3.9000 0.8000 0.7306 4.1167 0.8000 0.7922 4.3333 0.8000 0.8464 4.5500 0.8000 0.8907 4.7667 0.8000 0.9235 4.9833 0.8000 0.9447 5.2000 0.8000 0.9552 -5.2000 1.0000 0.0200 -4.9833 1.0000 0.0200 -4.7667 1.0000 0.0200 -4.5500 1.0000 0.0658 -4.3333 1.0000 0.1261 -4.1167 1.0000 0.1828 -3.9000 1.0000 0.2322 -3.6833 1.0000 0.2714 -3.4667 1.0000 0.2986 -3.2500 1.0000 0.3133 -3.0333 1.0000 0.3163 -2.8167 1.0000 0.3095 -2.6000 1.0000 0.2959 -2.3833 1.0000 0.2792 -2.1667 1.0000 0.2630 -1.9500 1.0000 0.2510 -1.7333 1.0000 0.2463 -1.5167 1.0000 0.2508 -1.3000 1.0000 0.2656 -1.0833 1.0000 0.2902 -0.8667 1.0000 0.3232 -0.6500 1.0000 0.3620 -0.4333 1.0000 0.4033 -0.2167 1.0000 0.4436 0.0000 1.0000 0.4794 0.2167 1.0000 0.5077 0.4333 1.0000 0.5267 0.6500 1.0000 0.5352 0.8667 1.0000 0.5337 1.0833 1.0000 0.5236 1.3000 1.0000 0.5075 1.5167 1.0000 0.4886 1.7333 1.0000 0.4707 1.9500 1.0000 0.4576 2.1667 1.0000 0.4528 2.3833 1.0000 0.4590 2.6000 1.0000 0.4780 2.8167 1.0000 0.5104 3.0333 1.0000 0.5556 3.2500 1.0000 0.6115 3.4667 1.0000 0.6751 3.6833 1.0000 0.7426 3.9000 1.0000 0.8099 4.1167 1.0000 0.8729 4.3333 1.0000 0.9280 4.5500 1.0000 0.9725 4.7667 1.0000 1.0050 4.9833 1.0000 1.0255 5.2000 1.0000 1.0352 -5.2000 1.2000 0.0200 -4.9833 1.2000 0.0200 -4.7667 1.2000 0.0231 -4.5500 1.2000 0.0795 -4.3333 1.2000 0.1373 -4.1167 1.2000 0.1927 -3.9000 1.2000 0.2420 -3.6833 1.2000 0.2820 -3.4667 1.2000 0.3109 -3.2500 1.2000 0.3278 -3.0333 1.2000 0.3332 -2.8167 1.2000 0.3287 -2.6000 1.2000 0.3170 -2.3833 1.2000 0.3015 -2.1667 1.2000 0.2860 -1.9500 1.2000 0.2742 -1.7333 1.2000 0.2692 -1.5167 1.2000 0.2735 -1.3000 1.2000 0.2884 -1.0833 1.2000 0.3138 -0.8667 1.2000 0.3485 -0.6500 1.2000 0.3902 -0.4333 1.2000 0.4357 -0.2167 1.2000 0.4815 0.0000 1.2000 0.5238 0.2167 1.2000 0.5595 0.4333 1.2000 0.5860 0.6500 1.2000 0.6020 0.8667 1.2000 0.6074 1.0833 1.2000 0.6033 1.3000 1.2000 0.5919 1.5167 1.2000 0.5765 1.7333 1.2000 0.5608 1.9500 1.2000 0.5486 2.1667 1.2000 0.5436 2.3833 1.2000 0.5488 2.6000 1.2000 0.5664 2.8167 1.2000 0.5972 3.0333 1.2000 0.6407 3.2500 1.2000 0.6952 3.4667 1.2000 0.7577 3.6833 1.2000 0.8247 3.9000 1.2000 0.8919 4.1167 1.2000 0.9552 4.3333 1.2000 1.0109 4.5500 1.2000 1.0563 4.7667 1.2000 1.0896 4.9833 1.2000 1.1105 5.2000 1.2000 1.1202 -5.2000 1.4000 0.0200 -4.9833 1.4000 0.0200 -4.7667 1.4000 0.0348 -4.5500 1.4000 0.0871 -4.3333 1.4000 0.1429 -4.1167 1.4000 0.1984 -3.9000 1.4000 0.2499 -3.6833 1.4000 0.2941 -3.4667 1.4000 0.3284 -3.2500 1.4000 0.3515 -3.0333 1.4000 0.3632 -2.8167 1.4000 0.3645 -2.6000 1.4000 0.3575 -2.3833 1.4000 0.3453 -2.1667 1.4000 0.3314 -1.9500 1.4000 0.3197 -1.7333 1.4000 0.3136 -1.5167 1.4000 0.3158 -1.3000 1.4000 0.3284 -1.0833 1.4000 0.3519 -0.8667 1.4000 0.3858 -0.6500 1.4000 0.4282 -0.4333 1.4000 0.4764 -0.2167 1.4000 0.5269 0.0000 1.4000 0.5759 0.2167 1.4000 0.6200 0.4333 1.4000 0.6560 0.6500 1.4000 0.6820 0.8667 1.4000 0.6971 1.0833 1.4000 0.7016 1.3000 1.4000 0.6973 1.5167 1.4000 0.6869 1.7333 1.4000 0.6737 1.9500 1.4000 0.6617 2.1667 1.4000 0.6547 2.3833 1.4000 0.6561 2.6000 1.4000 0.6684 2.8167 1.4000 0.6930 3.0333 1.4000 0.7302 3.2500 1.4000 0.7787 3.4667 1.4000 0.8362 3.6833 1.4000 0.8993 3.9000 1.4000 0.9640 4.1167 1.4000 1.0263 4.3333 1.4000 1.0824 4.5500 1.4000 1.1291 4.7667 1.4000 1.1643 4.9833 1.4000 1.1873 5.2000 1.4000 1.1983 -5.2000 1.6000 0.0200 -4.9833 1.6000 0.0200 -4.7667 1.6000 0.0538 -4.5500 1.6000 0.1013 -4.3333 1.6000 0.1547 -4.1167 1.6000 0.2105 -3.9000 1.6000 0.2651 -3.6833 1.6000 0.3149 -3.4667 1.6000 0.3569 -3.2500 1.6000 0.3888 -3.0333 1.6000 0.4096 -2.8167 1.6000 0.4195 -2.6000 1.6000 0.4198 -2.3833 1.6000 0.4129 -2.1667 1.6000 0.4021 -1.9500 1.6000 0.3910 -1.7333 1.6000 0.3833 -1.5167 1.6000 0.3822 -1.3000 1.6000 0.3904 -1.0833 1.6000 0.4092 -0.8667 1.6000 0.4390 -0.6500 1.6000 0.4788 -0.4333 1.6000 0.5264 -0.2167 1.6000 0.5788 0.0000 1.6000 0.6323 0.2167 1.6000 0.6832 0.4333 1.6000 0.7281 0.6500 1.6000 0.7642 0.8667 1.6000 0.7897 1.0833 1.6000 0.8041 1.3000 1.6000 0.8081 1.5167 1.6000 0.8037 1.7333 1.6000 0.7938 1.9500 1.6000 0.7820 2.1667 1.6000 0.7722 2.3833 1.6000 0.7679 2.6000 1.6000 0.7724 2.8167 1.6000 0.7877 3.0333 1.6000 0.8148 3.2500 1.6000 0.8534 3.4667 1.6000 0.9020 3.6833 1.6000 0.9579 3.9000 1.6000 1.0176 4.1167 1.6000 1.0771 4.3333 1.6000 1.1328 4.5500 1.6000 1.1809 4.7667 1.6000 1.2190 4.9833 1.6000 1.2455 5.2000 1.6000 1.2598 -5.2000 1.8000 0.0401 -4.9833 1.8000 0.0602 -4.7667 1.8000 0.0916 -4.5500 1.8000 0.1332 -4.3333 1.8000 0.1830 -4.1167 1.8000 0.2380 -3.9000 1.8000 0.2948 -3.6833 1.8000 0.3496 -3.4667 1.8000 0.3990 -3.2500 1.8000 0.4400 -3.0333 1.8000 0.4708 -2.8167 1.8000 0.4905 -2.6000 1.8000 0.4995 -2.3833 1.8000 0.4995 -2.1667 1.8000 0.4931 -1.9500 1.8000 0.4835 -1.7333 1.8000 0.4746 -1.5167 1.8000 0.4698 -1.3000 1.8000 0.4723 -1.0833 1.8000 0.4845 -0.8667 1.8000 0.5075 -0.6500 1.8000 0.5412 -0.4333 1.8000 0.5844 -0.2167 1.8000 0.6347 0.0000 1.8000 0.6889 0.2167 1.8000 0.7433 0.4333 1.8000 0.7942 0.6500 1.8000 0.8382 0.8667 1.8000 0.8727 1.0833 1.8000 0.8964 1.3000 1.8000 0.9088 1.5167 1.8000 0.9110 1.7333 1.8000 0.9052 1.9500 1.8000 0.8944 2.1667 1.8000 0.8821 2.3833 1.8000 0.8723 2.6000 1.8000 0.8683 2.8167 1.8000 0.8730 3.0333 1.8000 0.8883 3.2500 1.8000 0.9149 3.4667 1.8000 0.9522 3.6833 1.8000 0.9984 3.9000 1.8000 1.0507 4.1167 1.8000 1.1057 4.3333 1.8000 1.1596 4.5500 1.8000 1.2087 4.7667 1.8000 1.2499 4.9833 1.8000 1.2807 5.2000 1.8000 1.3000 -5.2000 2.0000 0.1159 -4.9833 2.0000 0.1290 -4.7667 2.0000 0.1531 -4.5500 2.0000 0.1883 -4.3333 2.0000 0.2332 -4.1167 2.0000 0.2857 -3.9000 2.0000 0.3425 -3.6833 2.0000 0.4000 -3.4667 2.0000 0.4546 -3.2500 2.0000 0.5028 -3.0333 2.0000 0.5421 -2.8167 2.0000 0.5706 -2.6000 2.0000 0.5880 -2.3833 2.0000 0.5949 -2.1667 2.0000 0.5933 -1.9500 2.0000 0.5859 -1.7333 2.0000 0.5763 -1.5167 2.0000 0.5682 -1.3000 2.0000 0.5651 -1.0833 2.0000 0.5699 -0.8667 2.0000 0.5847 -0.6500 2.0000 0.6102 -0.4333 2.0000 0.6462 -0.2167 2.0000 0.6910 0.0000 2.0000 0.7421 0.2167 2.0000 0.7960 0.4333 2.0000 0.8490 0.6500 2.0000 0.8976 0.8667 2.0000 0.9384 1.0833 2.0000 0.9693 1.3000 2.0000 0.9889 1.5167 2.0000 0.9974 1.7333 2.0000 0.9960 1.9500 2.0000 0.9870 2.1667 2.0000 0.9736 2.3833 2.0000 0.9596 2.6000 2.0000 0.9485 2.8167 2.0000 0.9438 3.0333 2.0000 0.9479 3.2500 2.0000 0.9627 3.4667 2.0000 0.9883 3.6833 2.0000 1.0242 3.9000 2.0000 1.0681 4.1167 2.0000 1.1174 4.3333 2.0000 1.1685 4.5500 2.0000 1.2178 4.7667 2.0000 1.2615 4.9833 2.0000 1.2969 5.2000 2.0000 1.3219 -5.2000 2.2000 0.2098 -4.9833 2.2000 0.2173 -4.7667 2.2000 0.2351 -4.5500 2.2000 0.2640 -4.3333 2.2000 0.3035 -4.1167 2.2000 0.3519 -3.9000 2.2000 0.4066 -3.6833 2.2000 0.4641 -3.4667 2.2000 0.5209 -3.2500 2.2000 0.5731 -3.0333 2.2000 0.6177 -2.8167 2.2000 0.6523 -2.6000 2.2000 0.6757 -2.3833 2.2000 0.6880 -2.1667 2.2000 0.6902 -1.9500 2.2000 0.6848 -1.7333 2.2000 0.6748 -1.5167 2.2000 0.6639 -1.3000 2.2000 0.6559 -1.0833 2.2000 0.6539 -0.8667 2.2000 0.6607 -0.6500 2.2000 0.6778 -0.4333 2.2000 0.7057 -0.2167 2.2000 0.7435 0.0000 2.2000 0.7892 0.2167 2.2000 0.8399 0.4333 2.2000 0.8920 0.6500 2.2000 0.9418 0.8667 2.2000 0.9858 1.0833 2.2000 1.0211 1.3000 2.2000 1.0459 1.5167 2.2000 1.0592 1.7333 2.2000 1.0617 1.9500 2.2000 1.0550 2.1667 2.2000 1.0418 2.3833 2.2000 1.0255 2.6000 2.2000 1.0098 2.8167 2.2000 0.9982 3.0333 2.2000 0.9940 3.2500 2.2000 0.9993 3.4667 2.2000 1.0155 3.6833 2.2000 1.0425 3.9000 2.2000 1.0791 4.1167 2.2000 1.1231 4.3333 2.2000 1.1713 4.5500 2.2000 1.2202 4.7667 2.2000 1.2660 4.9833 2.2000 1.3055 5.2000 2.2000 1.3359 -5.2000 2.4000 0.3110 -4.9833 2.4000 0.3144 -4.7667 2.4000 0.3273 -4.5500 2.4000 0.3510 -4.3333 2.4000 0.3855 -4.1167 2.4000 0.4296 -3.9000 2.4000 0.4810 -3.6833 2.4000 0.5366 -3.4667 2.4000 0.5928 -3.2500 2.4000 0.6458 -3.0333 2.4000 0.6922 -2.8167 2.4000 0.7293 -2.6000 2.4000 0.7555 -2.3833 2.4000 0.7702 -2.1667 2.4000 0.7741 -1.9500 2.4000 0.7692 -1.7333 2.4000 0.7584 -1.5167 2.4000 0.7450 -1.3000 2.4000 0.7329 -1.0833 2.4000 0.7256 -0.8667 2.4000 0.7261 -0.6500 2.4000 0.7364 -0.4333 2.4000 0.7575 -0.2167 2.4000 0.7890 0.0000 2.4000 0.8294 0.2167 2.4000 0.8762 0.4333 2.4000 0.9260 0.6500 2.4000 0.9752 0.8667 2.4000 1.0200 1.0833 2.4000 1.0574 1.3000 2.4000 1.0849 1.5167 2.4000 1.1014 1.7333 2.4000 1.1066 1.9500 2.4000 1.1019 2.1667 2.4000 1.0895 2.3833 2.4000 1.0725 2.6000 2.4000 1.0546 2.8167 2.4000 1.0394 3.0333 2.4000 1.0304 3.2500 2.4000 1.0303 3.4667 2.4000 1.0407 3.6833 2.4000 1.0623 3.9000 2.4000 1.0944 4.1167 2.4000 1.1352 4.3333 2.4000 1.1817 4.5500 2.4000 1.2307 4.7667 2.4000 1.2784 4.9833 2.4000 1.3213 5.2000 2.4000 1.3564 -5.2000 2.6000 0.4075 -4.9833 2.6000 0.4080 -4.7667 2.6000 0.4176 -4.5500 2.6000 0.4378 -4.3333 2.6000 0.4687 -4.1167 2.6000 0.5095 -3.9000 2.6000 0.5578 -3.6833 2.6000 0.6109 -3.4667 2.6000 0.6649 -3.2500 2.6000 0.7163 -3.0333 2.6000 0.7616 -2.8167 2.6000 0.7978 -2.6000 2.6000 0.8233 -2.3833 2.6000 0.8372 -2.1667 2.6000 0.8402 -1.9500 2.6000 0.8339 -1.7333 2.6000 0.8212 -1.5167 2.6000 0.8055 -1.3000 2.6000 0.7905 -1.0833 2.6000 0.7798 -0.8667 2.6000 0.7765 -0.6500 2.6000 0.7830 -0.4333 2.6000 0.8002 -0.2167 2.6000 0.8281 0.0000 2.6000 0.8654 0.2167 2.6000 0.9097 0.4333 2.6000 0.9577 0.6500 2.6000 1.0059 0.8667 2.6000 1.0505 1.0833 2.6000 1.0883 1.3000 2.6000 1.1167 1.5167 2.6000 1.1343 1.7333 2.6000 1.1408 1.9500 2.6000 1.1372 2.1667 2.6000 1.1255 2.3833 2.6000 1.1089 2.6000 2.6000 1.0907 2.8167 2.6000 1.0749 3.0333 2.6000 1.0649 3.2500 2.6000 1.0635 3.4667 2.6000 1.0727 3.6833 2.6000 1.0932 3.9000 2.6000 1.1246 4.1167 2.6000 1.1652 4.3333 2.6000 1.2123 4.5500 2.6000 1.2627 4.7667 2.6000 1.3125 4.9833 2.6000 1.3582 5.2000 2.6000 1.3967 -5.2000 2.8000 0.4897 -4.9833 2.8000 0.4888 -4.7667 2.8000 0.4971 -4.5500 2.8000 0.5160 -4.3333 2.8000 0.5457 -4.1167 2.8000 0.5849 -3.9000 2.8000 0.6314 -3.6833 2.8000 0.6822 -3.4667 2.8000 0.7337 -3.2500 2.8000 0.7821 -3.0333 2.8000 0.8240 -2.8167 2.8000 0.8568 -2.6000 2.8000 0.8786 -2.3833 2.8000 0.8890 -2.1667 2.8000 0.8887 -1.9500 2.8000 0.8795 -1.7333 2.8000 0.8643 -1.5167 2.8000 0.8466 -1.3000 2.8000 0.8301 -1.0833 2.8000 0.8185 -0.8667 2.8000 0.8148 -0.6500 2.8000 0.8211 -0.4333 2.8000 0.8384 -0.2167 2.8000 0.8665 0.0000 2.8000 0.9040 0.2167 2.8000 0.9483 0.4333 2.8000 0.9962 0.6500 2.8000 1.0440 0.8667 2.8000 1.0881 1.0833 2.8000 1.1253 1.3000 2.8000 1.1531 1.5167 2.8000 1.1701 1.7333 2.8000 1.1762 1.9500 2.8000 1.1726 2.1667 2.8000 1.1612 2.3833 2.8000 1.1454 2.6000 2.8000 1.1286 2.8167 2.8000 1.1146 3.0333 2.8000 1.1069 3.2500 2.8000 1.1082 3.4667 2.8000 1.1204 3.6833 2.8000 1.1440 3.9000 2.8000 1.1786 4.1167 2.8000 1.2222 4.3333 2.8000 1.2720 4.5500 2.8000 1.3248 4.7667 2.8000 1.3767 4.9833 2.8000 1.4242 5.2000 2.8000 1.4641 -5.2000 3.0000 0.5538 -4.9833 3.0000 0.5536 -4.7667 3.0000 0.5633 -4.5500 3.0000 0.5838 -4.3333 3.0000 0.6147 -4.1167 3.0000 0.6547 -3.9000 3.0000 0.7010 -3.6833 3.0000 0.7504 -3.4667 3.0000 0.7992 -3.2500 3.0000 0.8437 -3.0333 3.0000 0.8809 -2.8167 3.0000 0.9082 -2.6000 3.0000 0.9244 -2.3833 3.0000 0.9294 -2.1667 3.0000 0.9244 -1.9500 3.0000 0.9116 -1.7333 3.0000 0.8942 -1.5167 3.0000 0.8759 -1.3000 3.0000 0.8603 -1.0833 3.0000 0.8509 -0.8667 3.0000 0.8504 -0.6500 3.0000 0.8607 -0.4333 3.0000 0.8823 -0.2167 3.0000 0.9144 0.0000 3.0000 0.9553 0.2167 3.0000 1.0021 0.4333 3.0000 1.0514 0.6500 3.0000 1.0994 0.8667 3.0000 1.1427 1.0833 3.0000 1.1782 1.3000 3.0000 1.2038 1.5167 3.0000 1.2185 1.7333 3.0000 1.2227 1.9500 3.0000 1.2179 2.1667 3.0000 1.2066 2.3833 3.0000 1.1920 2.6000 3.0000 1.1780 2.8167 3.0000 1.1681 3.0333 3.0000 1.1656 3.2500 3.0000 1.1730 3.4667 3.0000 1.1916 3.6833 3.0000 1.2217 3.9000 3.0000 1.2621 4.1167 3.0000 1.3107 4.3333 3.0000 1.3643 4.5500 3.0000 1.4195 4.7667 3.0000 1.4725 4.9833 3.0000 1.5197 5.2000 3.0000 1.5584</float_array>
          <technique_common><accessor source="#mountain_terrain_positions_array" count="1519" stride="3"><param name="X" type="float"/><param name="Y" type="float"/><param name="Z" type="float"/></accessor></technique_common>
        </source>
        <vertices id="mountain_terrain_vertices"><input semantic="POSITION" source="#mountain_terrain_positions"/></vertices>
        <triangles material="terrain_material" count="2880"><input semantic="VERTEX" source="#mountain_terrain_vertices" offset="0"/><p>0 1 50 0 50 49 1 2 51 1 51 50 2 3 52 2 52 51 3 4 53 3 53 52 4 5 54 4 54 53 5 6 55 5 55 54 6 7 56 6 56 55 7 8 57 7 57 56 8 9 58 8 58 57 9 10 59 9 59 58 10 11 60 10 60 59 11 12 61 11 61 60 12 13 62 12 62 61 13 14 63 13 63 62 14 15 64 14 64 63 15 16 65 15 65 64 16 17 66 16 66 65 17 18 67 17 67 66 18 19 68 18 68 67 19 20 69 19 69 68 20 21 70 20 70 69 21 22 71 21 71 70 22 23 72 22 72 71 23 24 73 23 73 72 24 25 74 24 74 73 25 26 75 25 75 74 26 27 76 26 76 75 27 28 77 27 77 76 28 29 78 28 78 77 29 30 79 29 79 78 30 31 80 30 80 79 31 32 81 31 81 80 32 33 82 32 82 81 33 34 83 33 83 82 34 35 84 34 84 83 35 36 85 35 85 84 36 37 86 36 86 85 37 38 87 37 87 86 38 39 88 38 88 87 39 40 89 39 89 88 40 41 90 40 90 89 41 42 91 41 91 90 42 43 92 42 92 91 43 44 93 43 93 92 44 45 94 44 94 93 45 46 95 45 95 94 46 47 96 46 96 95 47 48 97 47 97 96 49 50 99 49 99 98 50 51 100 50 100 99 51 52 101 51 101 100 52 53 102 52 102 101 53 54 103 53 103 102 54 55 104 54 104 103 55 56 105 55 105 104 56 57 106 56 106 105 57 58 107 57 107 106 58 59 108 58 108 107 59 60 109 59 109 108 60 61 110 60 110 109 61 62 111 61 111 110 62 63 112 62 112 111 63 64 113 63 113 112 64 65 114 64 114 113 65 66 115 65 115 114 66 67 116 66 116 115 67 68 117 67 117 116 68 69 118 68 118 117 69 70 119 69 119 118 70 71 120 70 120 119 71 72 121 71 121 120 72 73 122 72 122 121 73 74 123 73 123 122 74 75 124 74 124 123 75 76 125 75 125 124 76 77 126 76 126 125 77 78 127 77 127 126 78 79 128 78 128 127 79 80 129 79 129 128 80 81 130 80 130 129 81 82 131 81 131 130 82 83 132 82 132 131 83 84 133 83 133 132 84 85 134 84 134 133 85 86 135 85 135 134 86 87 136 86 136 135 87 88 137 87 137 136 88 89 138 88 138 137 89 90 139 89 139 138 90 91 140 90 140 139 91 92 141 91 141 140 92 93 142 92 142 141 93 94 143 93 143 142 94 95 144 94 144 143 95 96 145 95 145 144 96 97 146 96 146 145 98 99 148 98 148 147 99 100 149 99 149 148 100 101 150 100 150 149 101 102 151 101 151 150 102 103 152 102 152 151 103 104 153 103 153 152 104 105 154 104 154 153 105 106 155 105 155 154 106 107 156 106 156 155 107 108 157 107 157 156 108 109 158 108 158 157 109 110 159 109 159 158 110 111 160 110 160 159 111 112 161 111 161 160 112 113 162 112 162 161 113 114 163 113 163 162 114 115 164 114 164 163 115 116 165 115 165 164 116 117 166 116 166 165 117 118 167 117 167 166 118 119 168 118 168 167 119 120 169 119 169 168 120 121 170 120 170 169 121 122 171 121 171 170 122 123 172 122 172 171 123 124 173 123 173 172 124 125 174 124 174 173 125 126 175 125 175 174 126 127 176 126 176 175 127 128 177 127 177 176 128 129 178 128 178 177 129 130 179 129 179 178 130 131 180 130 180 179 131 132 181 131 181 180 132 133 182 132 182 181 133 134 183 133 183 182 134 135 184 134 184 183 135 136 185 135 185 184 136 137 186 136 186 185 137 138 187 137 187 186 138 139 188 138 188 187 139 140 189 139 189 188 140 141 190 140 190 189 141 142 191 141 191 190 142 143 192 142 192 191 143 144 193 143 193 192 144 145 194 144 194 193 145 146 195 145 195 194 147 148 197 147 197 196 148 149 198 148 198 197 149 150 199 149 199 198 150 151 200 150 200 199 151 152 201 151 201 200 152 153 202 152 202 201 153 154 203 153 203 202 154 155 204 154 204 203 155 156 205 155 205 204 156 157 206 156 206 205 157 158 207 157 207 206 158 159 208 158 208 207 159 160 209 159 209 208 160 161 210 160 210 209 161 162 211 161 211 210 162 163 212 162 212 211 163 164 213 163 213 212 164 165 214 164 214 213 165 166 215 165 215 214 166 167 216 166 216 215 167 168 217 167 217 216 168 169 218 168 218 217 169 170 219 169 219 218 170 171 220 170 220 219 171 172 221 171 221 220 172 173 222 172 222 221 173 174 223 173 223 222 174 175 224 174 224 223 175 176 225 175 225 224 176 177 226 176 226 225 177 178 227 177 227 226 178 179 228 178 228 227 179 180 229 179 229 228 180 181 230 180 230 229 181 182 231 181 231 230 182 183 232 182 232 231 183 184 233 183 233 232 184 185 234 184 234 233 185 186 235 185 235 234 186 187 236 186 236 235 187 188 237 187 237 236 188 189 238 188 238 237 189 190 239 189 239 238 190 191 240 190 240 239 191 192 241 191 241 240 192 193 242 192 242 241 193 194 243 193 243 242 194 195 244 194 244 243 196 197 246 196 246 245 197 198 247 197 247 246 198 199 248 198 248 247 199 200 249 199 249 248 200 201 250 200 250 249 201 202 251 201 251 250 202 203 252 202 252 251 203 204 253 203 253 252 204 205 254 204 254 253 205 206 255 205 255 254 206 207 256 206 256 255 207 208 257 207 257 256 208 209 258 208 258 257 209 210 259 209 259 258 210 211 260 210 260 259 211 212 261 211 261 260 212 213 262 212 262 261 213 214 263 213 263 262 214 215 264 214 264 263 215 216 265 215 265 264 216 217 266 216 266 265 217 218 267 217 267 266 218 219 268 218 268 267 219 220 269 219 269 268 220 221 270 220 270 269 221 222 271 221 271 270 222 223 272 222 272 271 223 224 273 223 273 272 224 225 274 224 274 273 225 226 275 225 275 274 226 227 276 226 276 275 227 228 277 227 277 276 228 229 278 228 278 277 229 230 279 229 279 278 230 231 280 230 280 279 231 232 281 231 281 280 232 233 282 232 282 281 233 234 283 233 283 282 234 235 284 234 284 283 235 236 285 235 285 284 236 237 286 236 286 285 237 238 287 237 287 286 238 239 288 238 288 287 239 240 289 239 289 288 240 241 290 240 290 289 241 242 291 241 291 290 242 243 292 242 292 291 243 244 293 243 293 292 245 246 295 245 295 294 246 247 296 246 296 295 247 248 297 247 297 296 248 249 298 248 298 297 249 250 299 249 299 298 250 251 300 250 300 299 251 252 301 251 301 300 252 253 302 252 302 301 253 254 303 253 303 302 254 255 304 254 304 303 255 256 305 255 305 304 256 257 306 256 306 305 257 258 307 257 307 306 258 259 308 258 308 307 259 260 309 259 309 308 260 261 310 260 310 309 261 262 311 261 311 310 262 263 312 262 312 311 263 264 313 263 313 312 264 265 314 264 314 313 265 266 315 265 315 314 266 267 316 266 316 315 267 268 317 267 317 316 268 269 318 268 318 317 269 270 319 269 319 318 270 271 320 270 320 319 271 272 321 271 321 320 272 273 322 272 322 321 273 274 323 273 323 322 274 275 324 274 324 323 275 276 325 275 325 324 276 277 326 276 326 325 277 278 327 277 327 326 278 279 328 278 328 327 279 280 329 279 329 328 280 281 330 280 330 329 281 282 331 281 331 330 282 283 332 282 332 331 283 284 333 283 333 332 284 285 334 284 334 333 285 286 335 285 335 334 286 287 336 286 336 335 287 288 337 287 337 336 288 289 338 288 338 337 289 290 339 289 339 338 290 291 340 290 340 339 291 292 341 291 341 340 292 293 342 292 342 341 294 295 344 294 344 343 295 296 345 295 345 344 296 297 346 296 346 345 297 298 347 297 347 346 298 299 348 298 348 347 299 300 349 299 349 348 300 301 350 300 350 349 301 302 351 301 351 350 302 303 352 302 352 351 303 304 353 303 353 352 304 305 354 304 354 353 305 306 355 305 355 354 306 307 356 306 356 355 307 308 357 307 357 356 308 309 358 308 358 357 309 310 359 309 359 358 310 311 360 310 360 359 311 312 361 311 361 360 312 313 362 312 362 361 313 314 363 313 363 362 314 315 364 314 364 363 315 316 365 315 365 364 316 317 366 316 366 365 317 318 367 317 367 366 318 319 368 318 368 367 319 320 369 319 369 368 320 321 370 320 370 369 321 322 371 321 371 370 322 323 372 322 372 371 323 324 373 323 373 372 324 325 374 324 374 373 325 326 375 325 375 374 326 327 376 326 376 375 327 328 377 327 377 376 328 329 378 328 378 377 329 330 379 329 379 378 330 331 380 330 380 379 331 332 381 331 381 380 332 333 382 332 382 381 333 334 383 333 383 382 334 335 384 334 384 383 335 336 385 335 385 384 336 337 386 336 386 385 337 338 387 337 387 386 338 339 388 338 388 387 339 340 389 339 389 388 340 341 390 340 390 389 341 342 391 341 391 390 343 344 393 343 393 392 344 345 394 344 394 393 345 346 395 345 395 394 346 347 396 346 396 395 347 348 397 347 397 396 348 349 398 348 398 397 349 350 399 349 399 398 350 351 400 350 400 399 351 352 401 351 401 400 352 353 402 352 402 401 353 354 403 353 403 402 354 355 404 354 404 403 355 356 405 355 405 404 356 357 406 356 406 405 357 358 407 357 407 406 358 359 408 358 408 407 359 360 409 359 409 408 360 361 410 360 410 409 361 362 411 361 411 410 362 363 412 362 412 411 363 364 413 363 413 412 364 365 414 364 414 413 365 366 415 365 415 414 366 367 416 366 416 415 367 368 417 367 417 416 368 369 418 368 418 417 369 370 419 369 419 418 370 371 420 370 420 419 371 372 421 371 421 420 372 373 422 372 422 421 373 374 423 373 423 422 374 375 424 374 424 423 375 376 425 375 425 424 376 377 426 376 426 425 377 378 427 377 427 426 378 379 428 378 428 427 379 380 429 379 429 428 380 381 430 380 430 429 381 382 431 381 431 430 382 383 432 382 432 431 383 384 433 383 433 432 384 385 434 384 434 433 385 386 435 385 435 434 386 387 436 386 436 435 387 388 437 387 437 436 388 389 438 388 438 437 389 390 439 389 439 438 390 391 440 390 440 439 392 393 442 392 442 441 393 394 443 393 443 442 394 395 444 394 444 443 395 396 445 395 445 444 396 397 446 396 446 445 397 398 447 397 447 446 398 399 448 398 448 447 399 400 449 399 449 448 400 401 450 400 450 449 401 402 451 401 451 450 402 403 452 402 452 451 403 404 453 403 453 452 404 405 454 404 454 453 405 406 455 405 455 454 406 407 456 406 456 455 407 408 457 407 457 456 408 409 458 408 458 457 409 410 459 409 459 458 410 411 460 410 460 459 411 412 461 411 461 460 412 413 462 412 462 461 413 414 463 413 463 462 414 415 464 414 464 463 415 416 465 415 465 464 416 417 466 416 466 465 417 418 467 417 467 466 418 419 468 418 468 467 419 420 469 419 469 468 420 421 470 420 470 469 421 422 471 421 471 470 422 423 472 422 472 471 423 424 473 423 473 472 424 425 474 424 474 473 425 426 475 425 475 474 426 427 476 426 476 475 427 428 477 427 477 476 428 429 478 428 478 477 429 430 479 429 479 478 430 431 480 430 480 479 431 432 481 431 481 480 432 433 482 432 482 481 433 434 483 433 483 482 434 435 484 434 484 483 435 436 485 435 485 484 436 437 486 436 486 485 437 438 487 437 487 486 438 439 488 438 488 487 439 440 489 439 489 488 441 442 491 441 491 490 442 443 492 442 492 491 443 444 493 443 493 492 444 445 494 444 494 493 445 446 495 445 495 494 446 447 496 446 496 495 447 448 497 447 497 496 448 449 498 448 498 497 449 450 499 449 499 498 450 451 500 450 500 499 451 452 501 451 501 500 452 453 502 452 502 501 453 454 503 453 503 502 454 455 504 454 504 503 455 456 505 455 505 504 456 457 506 456 506 505 457 458 507 457 507 506 458 459 508 458 508 507 459 460 509 459 509 508 460 461 510 460 510 509 461 462 511 461 511 510 462 463 512 462 512 511 463 464 513 463 513 512 464 465 514 464 514 513 465 466 515 465 515 514 466 467 516 466 516 515 467 468 517 467 517 516 468 469 518 468 518 517 469 470 519 469 519 518 470 471 520 470 520 519 471 472 521 471 521 520 472 473 522 472 522 521 473 474 523 473 523 522 474 475 524 474 524 523 475 476 525 475 525 524 476 477 526 476 526 525 477 478 527 477 527 526 478 479 528 478 528 527 479 480 529 479 529 528 480 481 530 480 530 529 481 482 531 481 531 530 482 483 532 482 532 531 483 484 533 483 533 532 484 485 534 484 534 533 485 486 535 485 535 534 486 487 536 486 536 535 487 488 537 487 537 536 488 489 538 488 538 537 490 491 540 490 540 539 491 492 541 491 541 540 492 493 542 492 542 541 493 494 543 493 543 542 494 495 544 494 544 543 495 496 545 495 545 544 496 497 546 496 546 545 497 498 547 497 547 546 498 499 548 498 548 547 499 500 549 499 549 548 500 501 550 500 550 549 501 502 551 501 551 550 502 503 552 502 552 551 503 504 553 503 553 552 504 505 554 504 554 553 505 506 555 505 555 554 506 507 556 506 556 555 507 508 557 507 557 556 508 509 558 508 558 557 509 510 559 509 559 558 510 511 560 510 560 559 511 512 561 511 561 560 512 513 562 512 562 561 513 514 563 513 563 562 514 515 564 514 564 563 515 516 565 515 565 564 516 517 566 516 566 565 517 518 567 517 567 566 518 519 568 518 568 567 519 520 569 519 569 568 520 521 570 520 570 569 521 522 571 521 571 570 522 523 572 522 572 571 523 524 573 523 573 572 524 525 574 524 574 573 525 526 575 525 575 574 526 527 576 526 576 575 527 528 577 527 577 576 528 529 578 528 578 577 529 530 579 529 579 578 530 531 580 530 580 579 531 532 581 531 581 580 532 533 582 532 582 581 533 534 583 533 583 582 534 535 584 534 584 583 535 536 585 535 585 584 536 537 586 536 586 585 537 538 587 537 587 586 539 540 589 539 589 588 540 541 590 540 590 589 541 542 591 541 591 590 542 543 592 542 592 591 543 544 593 543 593 592 544 545 594 544 594 593 545 546 595 545 595 594 546 547 596 546 596 595 547 548 597 547 597 596 548 549 598 548 598 597 549 550 599 549 599 598 550 551 600 550 600 599 551 552 601 551 601 600 552 553 602 552 602 601 553 554 603 553 603 602 554 555 604 554 604 603 555 556 605 555 605 604 556 557 606 556 606 605 557 558 607 557 607 606 558 559 608 558 608 607 559 560 609 559 609 608 560 561 610 560 610 609 561 562 611 561 611 610 562 563 612 562 612 611 563 564 613 563 613 612 564 565 614 564 614 613 565 566 615 565 615 614 566 567 616 566 616 615 567 568 617 567 617 616 568 569 618 568 618 617 569 570 619 569 619 618 570 571 620 570 620 619 571 572 621 571 621 620 572 573 622 572 622 621 573 574 623 573 623 622 574 575 624 574 624 623 575 576 625 575 625 624 576 577 626 576 626 625 577 578 627 577 627 626 578 579 628 578 628 627 579 580 629 579 629 628 580 581 630 580 630 629 581 582 631 581 631 630 582 583 632 582 632 631 583 584 633 583 633 632 584 585 634 584 634 633 585 586 635 585 635 634 586 587 636 586 636 635 588 589 638 588 638 637 589 590 639 589 639 638 590 591 640 590 640 639 591 592 641 591 641 640 592 593 642 592 642 641 593 594 643 593 643 642 594 595 644 594 644 643 595 596 645 595 645 644 596 597 646 596 646 645 597 598 647 597 647 646 598 599 648 598 648 647 599 600 649 599 649 648 600 601 650 600 650 649 601 602 651 601 651 650 602 603 652 602 652 651 603 604 653 603 653 652 604 605 654 604 654 653 605 606 655 605 655 654 606 607 656 606 656 655 607 608 657 607 657 656 608 609 658 608 658 657 609 610 659 609 659 658 610 611 660 610 660 659 611 612 661 611 661 660 612 613 662 612 662 661 613 614 663 613 663 662 614 615 664 614 664 663 615 616 665 615 665 664 616 617 666 616 666 665 617 618 667 617 667 666 618 619 668 618 668 667 619 620 669 619 669 668 620 621 670 620 670 669 621 622 671 621 671 670 622 623 672 622 672 671 623 624 673 623 673 672 624 625 674 624 674 673 625 626 675 625 675 674 626 627 676 626 676 675 627 628 677 627 677 676 628 629 678 628 678 677 629 630 679 629 679 678 630 631 680 630 680 679 631 632 681 631 681 680 632 633 682 632 682 681 633 634 683 633 683 682 634 635 684 634 684 683 635 636 685 635 685 684 637 638 687 637 687 686 638 639 688 638 688 687 639 640 689 639 689 688 640 641 690 640 690 689 641 642 691 641 691 690 642 643 692 642 692 691 643 644 693 643 693 692 644 645 694 644 694 693 645 646 695 645 695 694 646 647 696 646 696 695 647 648 697 647 697 696 648 649 698 648 698 697 649 650 699 649 699 698 650 651 700 650 700 699 651 652 701 651 701 700 652 653 702 652 702 701 653 654 703 653 703 702 654 655 704 654 704 703 655 656 705 655 705 704 656 657 706 656 706 705 657 658 707 657 707 706 658 659 708 658 708 707 659 660 709 659 709 708 660 661 710 660 710 709 661 662 711 661 711 710 662 663 712 662 712 711 663 664 713 663 713 712 664 665 714 664 714 713 665 666 715 665 715 714 666 667 716 666 716 715 667 668 717 667 717 716 668 669 718 668 718 717 669 670 719 669 719 718 670 671 720 670 720 719 671 672 721 671 721 720 672 673 722 672 722 721 673 674 723 673 723 722 674 675 724 674 724 723 675 676 725 675 725 724 676 677 726 676 726 725 677 678 727 677 727 726 678 679 728 678 728 727 679 680 729 679 729 728 680 681 730 680 730 729 681 682 731 681 731 730 682 683 732 682 732 731 683 684 733 683 733 732 684 685 734 684 734 733 686 687 736 686 736 735 687 688 737 687 737 736 688 689 738 688 738 737 689 690 739 689 739 738 690 691 740 690 740 739 691 692 741 691 741 740 692 693 742 692 742 741 693 694 743 693 743 742 694 695 744 694 744 743 695 696 745 695 745 744 696 697 746 696 746 745 697 698 747 697 747 746 698 699 748 698 748 747 699 700 749 699 749 748 700 701 750 700 750 749 701 702 751 701 751 750 702 703 752 702 752 751 703 704 753 703 753 752 704 705 754 704 754 753 705 706 755 705 755 754 706 707 756 706 756 755 707 708 757 707 757 756 708 709 758 708 758 757 709 710 759 709 759 758 710 711 760 710 760 759 711 712 761 711 761 760 712 713 762 712 762 761 713 714 763 713 763 762 714 715 764 714 764 763 715 716 765 715 765 764 716 717 766 716 766 765 717 718 767 717 767 766 718 719 768 718 768 767 719 720 769 719 769 768 720 721 770 720 770 769 721 722 771 721 771 770 722 723 772 722 772 771 723 724 773 723 773 772 724 725 774 724 774 773 725 726 775 725 775 774 726 727 776 726 776 775 727 728 777 727 777 776 728 729 778 728 778 777 729 730 779 729 779 778 730 731 780 730 780 779 731 732 781 731 781 780 732 733 782 732 782 781 733 734 783 733 783 782 735 736 785 735 785 784 736 737 786 736 786 785 737 738 787 737 787 786 738 739 788 738 788 787 739 740 789 739 789 788 740 741 790 740 790 789 741 742 791 741 791 790 742 743 792 742 792 791 743 744 793 743 793 792 744 745 794 744 794 793 745 746 795 745 795 794 746 747 796 746 796 795 747 748 797 747 797 796 748 749 798 748 798 797 749 750 799 749 799 798 750 751 800 750 800 799 751 752 801 751 801 800 752 753 802 752 802 801 753 754 803 753 803 802 754 755 804 754 804 803 755 756 805 755 805 804 756 757 806 756 806 805 757 758 807 757 807 806 758 759 808 758 808 807 759 760 809 759 809 808 760 761 810 760 810 809 761 762 811 761 811 810 762 763 812 762 812 811 763 764 813 763 813 812 764 765 814 764 814 813 765 766 815 765 815 814 766 767 816 766 816 815 767 768 817 767 817 816 768 769 818 768 818 817 769 770 819 769 819 818 770 771 820 770 820 819 771 772 821 771 821 820 772 773 822 772 822 821 773 774 823 773 823 822 774 775 824 774 824 823 775 776 825 775 825 824 776 777 826 776 826 825 777 778 827 777 827 826 778 779 828 778 828 827 779 780 829 779 829 828 780 781 830 780 830 829 781 782 831 781 831 830 782 783 832 782 832 831 784 785 834 784 834 833 785 786 835 785 835 834 786 787 836 786 836 835 787 788 837 787 837 836 788 789 838 788 838 837 789 790 839 789 839 838 790 791 840 790 840 839 791 792 841 791 841 840 792 793 842 792 842 841 793 794 843 793 843 842 794 795 844 794 844 843 795 796 845 795 845 844 796 797 846 796 846 845 797 798 847 797 847 846 798 799 848 798 848 847 799 800 849 799 849 848 800 801 850 800 850 849 801 802 851 801 851 850 802 803 852 802 852 851 803 804 853 803 853 852 804 805 854 804 854 853 805 806 855 805 855 854 806 807 856 806 856 855 807 808 857 807 857 856 808 809 858 808 858 857 809 810 859 809 859 858 810 811 860 810 860 859 811 812 861 811 861 860 812 813 862 812 862 861 813 814 863 813 863 862 814 815 864 814 864 863 815 816 865 815 865 864 816 817 866 816 866 865 817 818 867 817 867 866 818 819 868 818 868 867 819 820 869 819 869 868 820 821 870 820 870 869 821 822 871 821 871 870 822 823 872 822 872 871 823 824 873 823 873 872 824 825 874 824 874 873 825 826 875 825 875 874 826 827 876 826 876 875 827 828 877 827 877 876 828 829 878 828 878 877 829 830 879 829 879 878 830 831 880 830 880 879 831 832 881 831 881 880 833 834 883 833 883 882 834 835 884 834 884 883 835 836 885 835 885 884 836 837 886 836 886 885 837 838 887 837 887 886 838 839 888 838 888 887 839 840 889 839 889 888 840 841 890 840 890 889 841 842 891 841 891 890 842 843 892 842 892 891 843 844 893 843 893 892 844 845 894 844 894 893 845 846 895 845 895 894 846 847 896 846 896 895 847 848 897 847 897 896 848 849 898 848 898 897 849 850 899 849 899 898 850 851 900 850 900 899 851 852 901 851 901 900 852 853 902 852 902 901 853 854 903 853 903 902 854 855 904 854 904 903 855 856 905 855 905 904 856 857 906 856 906 905 857 858 907 857 907 906 858 859 908 858 908 907 859 860 909 859 909 908 860 861 910 860 910 909 861 862 911 861 911 910 862 863 912 862 912 911 863 864 913 863 913 912 864 865 914 864 914 913 865 866 915 865 915 914 866 867 916 866 916 915 867 868 917 867 917 916 868 869 918 868 918 917 869 870 919 869 919 918 870 871 920 870 920 919 871 872 921 871 921 920 872 873 922 872 922 921 873 874 923 873 923 922 874 875 924 874 924 923 875 876 925 875 925 924 876 877 926 876 926 925 877 878 927 877 927 926 878 879 928 878 928 927 879 880 929 879 929 928 880 881 930 880 930 929 882 883 932 882 932 931 883 884 933 883 933 932 884 885 934 884 934 933 885 886 935 885 935 934 886 887 936 886 936 935 887 888 937 887 937 936 888 889 938 888 938 937 889 890 939 889 939 938 890 891 940 890 940 939 891 892 941 891 941 940 892 893 942 892 942 941 893 894 943 893 943 942 894 895 944 894 944 943 895 896 945 895 945 944 896 897 946 896 946 945 897 898 947 897 947 946 898 899 948 898 948 947 899 900 949 899 949 948 900 901 950 900 950 949 901 902 951 901 951 950 902 903 952 902 952 951 903 904 953 903 953 952 904 905 954 904 954 953 905 906 955 905 955 954 906 907 956 906 956 955 907 908 957 907 957 956 908 909 958 908 958 957 909 910 959 909 959 958 910 911 960 910 960 959 911 912 961 911 961 960 912 913 962 912 962 961 913 914 963 913 963 962 914 915 964 914 964 963 915 916 965 915 965 964 916 917 966 916 966 965 917 918 967 917 967 966 918 919 968 918 968 967 919 920 969 919 969 968 920 921 970 920 970 969 921 922 971 921 971 970 922 923 972 922 972 971 923 924 973 923 973 972 924 925 974 924 974 973 925 926 975 925 975 974 926 927 976 926 976 975 927 928 977 927 977 976 928 929 978 928 978 977 929 930 979 929 979 978 931 932 981 931 981 980 932 933 982 932 982 981 933 934 983 933 983 982 934 935 984 934 984 983 935 936 985 935 985 984 936 937 986 936 986 985 937 938 987 937 987 986 938 939 988 938 988 987 939 940 989 939 989 988 940 941 990 940 990 989 941 942 991 941 991 990 942 943 992 942 992 991 943 944 993 943 993 992 944 945 994 944 994 993 945 946 995 945 995 994 946 947 996 946 996 995 947 948 997 947 997 996 948 949 998 948 998 997 949 950 999 949 999 998 950 951 1000 950 1000 999 951 952 1001 951 1001 1000 952 953 1002 952 1002 1001 953 954 1003 953 1003 1002 954 955 1004 954 1004 1003 955 956 1005 955 1005 1004 956 957 1006 956 1006 1005 957 958 1007 957 1007 1006 958 959 1008 958 1008 1007 959 960 1009 959 1009 1008 960 961 1010 960 1010 1009 961 962 1011 961 1011 1010 962 963 1012 962 1012 1011 963 964 1013 963 1013 1012 964 965 1014 964 1014 1013 965 966 1015 965 1015 1014 966 967 1016 966 1016 1015 967 968 1017 967 1017 1016 968 969 1018 968 1018 1017 969 970 1019 969 1019 1018 970 971 1020 970 1020 1019 971 972 1021 971 1021 1020 972 973 1022 972 1022 1021 973 974 1023 973 1023 1022 974 975 1024 974 1024 1023 975 976 1025 975 1025 1024 976 977 1026 976 1026 1025 977 978 1027 977 1027 1026 978 979 1028 978 1028 1027 980 981 1030 980 1030 1029 981 982 1031 981 1031 1030 982 983 1032 982 1032 1031 983 984 1033 983 1033 1032 984 985 1034 984 1034 1033 985 986 1035 985 1035 1034 986 987 1036 986 1036 1035 987 988 1037 987 1037 1036 988 989 1038 988 1038 1037 989 990 1039 989 1039 1038 990 991 1040 990 1040 1039 991 992 1041 991 1041 1040 992 993 1042 992 1042 1041 993 994 1043 993 1043 1042 994 995 1044 994 1044 1043 995 996 1045 995 1045 1044 996 997 1046 996 1046 1045 997 998 1047 997 1047 1046 998 999 1048 998 1048 1047 999 1000 1049 999 1049 1048 1000 1001 1050 1000 1050 1049 1001 1002 1051 1001 1051 1050 1002 1003 1052 1002 1052 1051 1003 1004 1053 1003 1053 1052 1004 1005 1054 1004 1054 1053 1005 1006 1055 1005 1055 1054 1006 1007 1056 1006 1056 1055 1007 1008 1057 1007 1057 1056 1008 1009 1058 1008 1058 1057 1009 1010 1059 1009 1059 1058 1010 1011 1060 1010 1060 1059 1011 1012 1061 1011 1061 1060 1012 1013 1062 1012 1062 1061 1013 1014 1063 1013 1063 1062 1014 1015 1064 1014 1064 1063 1015 1016 1065 1015 1065 1064 1016 1017 1066 1016 1066 1065 1017 1018 1067 1017 1067 1066 1018 1019 1068 1018 1068 1067 1019 1020 1069 1019 1069 1068 1020 1021 1070 1020 1070 1069 1021 1022 1071 1021 1071 1070 1022 1023 1072 1022 1072 1071 1023 1024 1073 1023 1073 1072 1024 1025 1074 1024 1074 1073 1025 1026 1075 1025 1075 1074 1026 1027 1076 1026 1076 1075 1027 1028 1077 1027 1077 1076 1029 1030 1079 1029 1079 1078 1030 1031 1080 1030 1080 1079 1031 1032 1081 1031 1081 1080 1032 1033 1082 1032 1082 1081 1033 1034 1083 1033 1083 1082 1034 1035 1084 1034 1084 1083 1035 1036 1085 1035 1085 1084 1036 1037 1086 1036 1086 1085 1037 1038 1087 1037 1087 1086 1038 1039 1088 1038 1088 1087 1039 1040 1089 1039 1089 1088 1040 1041 1090 1040 1090 1089 1041 1042 1091 1041 1091 1090 1042 1043 1092 1042 1092 1091 1043 1044 1093 1043 1093 1092 1044 1045 1094 1044 1094 1093 1045 1046 1095 1045 1095 1094 1046 1047 1096 1046 1096 1095 1047 1048 1097 1047 1097 1096 1048 1049 1098 1048 1098 1097 1049 1050 1099 1049 1099 1098 1050 1051 1100 1050 1100 1099 1051 1052 1101 1051 1101 1100 1052 1053 1102 1052 1102 1101 1053 1054 1103 1053 1103 1102 1054 1055 1104 1054 1104 1103 1055 1056 1105 1055 1105 1104 1056 1057 1106 1056 1106 1105 1057 1058 1107 1057 1107 1106 1058 1059 1108 1058 1108 1107 1059 1060 1109 1059 1109 1108 1060 1061 1110 1060 1110 1109 1061 1062 1111 1061 1111 1110 1062 1063 1112 1062 1112 1111 1063 1064 1113 1063 1113 1112 1064 1065 1114 1064 1114 1113 1065 1066 1115 1065 1115 1114 1066 1067 1116 1066 1116 1115 1067 1068 1117 1067 1117 1116 1068 1069 1118 1068 1118 1117 1069 1070 1119 1069 1119 1118 1070 1071 1120 1070 1120 1119 1071 1072 1121 1071 1121 1120 1072 1073 1122 1072 1122 1121 1073 1074 1123 1073 1123 1122 1074 1075 1124 1074 1124 1123 1075 1076 1125 1075 1125 1124 1076 1077 1126 1076 1126 1125 1078 1079 1128 1078 1128 1127 1079 1080 1129 1079 1129 1128 1080 1081 1130 1080 1130 1129 1081 1082 1131 1081 1131 1130 1082 1083 1132 1082 1132 1131 1083 1084 1133 1083 1133 1132 1084 1085 1134 1084 1134 1133 1085 1086 1135 1085 1135 1134 1086 1087 1136 1086 1136 1135 1087 1088 1137 1087 1137 1136 1088 1089 1138 1088 1138 1137 1089 1090 1139 1089 1139 1138 1090 1091 1140 1090 1140 1139 1091 1092 1141 1091 1141 1140 1092 1093 1142 1092 1142 1141 1093 1094 1143 1093 1143 1142 1094 1095 1144 1094 1144 1143 1095 1096 1145 1095 1145 1144 1096 1097 1146 1096 1146 1145 1097 1098 1147 1097 1147 1146 1098 1099 1148 1098 1148 1147 1099 1100 1149 1099 1149 1148 1100 1101 1150 1100 1150 1149 1101 1102 1151 1101 1151 1150 1102 1103 1152 1102 1152 1151 1103 1104 1153 1103 1153 1152 1104 1105 1154 1104 1154 1153 1105 1106 1155 1105 1155 1154 1106 1107 1156 1106 1156 1155 1107 1108 1157 1107 1157 1156 1108 1109 1158 1108 1158 1157 1109 1110 1159 1109 1159 1158 1110 1111 1160 1110 1160 1159 1111 1112 1161 1111 1161 1160 1112 1113 1162 1112 1162 1161 1113 1114 1163 1113 1163 1162 1114 1115 1164 1114 1164 1163 1115 1116 1165 1115 1165 1164 1116 1117 1166 1116 1166 1165 1117 1118 1167 1117 1167 1166 1118 1119 1168 1118 1168 1167 1119 1120 1169 1119 1169 1168 1120 1121 1170 1120 1170 1169 1121 1122 1171 1121 1171 1170 1122 1123 1172 1122 1172 1171 1123 1124 1173 1123 1173 1172 1124 1125 1174 1124 1174 1173 1125 1126 1175 1125 1175 1174 1127 1128 1177 1127 1177 1176 1128 1129 1178 1128 1178 1177 1129 1130 1179 1129 1179 1178 1130 1131 1180 1130 1180 1179 1131 1132 1181 1131 1181 1180 1132 1133 1182 1132 1182 1181 1133 1134 1183 1133 1183 1182 1134 1135 1184 1134 1184 1183 1135 1136 1185 1135 1185 1184 1136 1137 1186 1136 1186 1185 1137 1138 1187 1137 1187 1186 1138 1139 1188 1138 1188 1187 1139 1140 1189 1139 1189 1188 1140 1141 1190 1140 1190 1189 1141 1142 1191 1141 1191 1190 1142 1143 1192 1142 1192 1191 1143 1144 1193 1143 1193 1192 1144 1145 1194 1144 1194 1193 1145 1146 1195 1145 1195 1194 1146 1147 1196 1146 1196 1195 1147 1148 1197 1147 1197 1196 1148 1149 1198 1148 1198 1197 1149 1150 1199 1149 1199 1198 1150 1151 1200 1150 1200 1199 1151 1152 1201 1151 1201 1200 1152 1153 1202 1152 1202 1201 1153 1154 1203 1153 1203 1202 1154 1155 1204 1154 1204 1203 1155 1156 1205 1155 1205 1204 1156 1157 1206 1156 1206 1205 1157 1158 1207 1157 1207 1206 1158 1159 1208 1158 1208 1207 1159 1160 1209 1159 1209 1208 1160 1161 1210 1160 1210 1209 1161 1162 1211 1161 1211 1210 1162 1163 1212 1162 1212 1211 1163 1164 1213 1163 1213 1212 1164 1165 1214 1164 1214 1213 1165 1166 1215 1165 1215 1214 1166 1167 1216 1166 1216 1215 1167 1168 1217 1167 1217 1216 1168 1169 1218 1168 1218 1217 1169 1170 1219 1169 1219 1218 1170 1171 1220 1170 1220 1219 1171 1172 1221 1171 1221 1220 1172 1173 1222 1172 1222 1221 1173 1174 1223 1173 1223 1222 1174 1175 1224 1174 1224 1223 1176 1177 1226 1176 1226 1225 1177 1178 1227 1177 1227 1226 1178 1179 1228 1178 1228 1227 1179 1180 1229 1179 1229 1228 1180 1181 1230 1180 1230 1229 1181 1182 1231 1181 1231 1230 1182 1183 1232 1182 1232 1231 1183 1184 1233 1183 1233 1232 1184 1185 1234 1184 1234 1233 1185 1186 1235 1185 1235 1234 1186 1187 1236 1186 1236 1235 1187 1188 1237 1187 1237 1236 1188 1189 1238 1188 1238 1237 1189 1190 1239 1189 1239 1238 1190 1191 1240 1190 1240 1239 1191 1192 1241 1191 1241 1240 1192 1193 1242 1192 1242 1241 1193 1194 1243 1193 1243 1242 1194 1195 1244 1194 1244 1243 1195 1196 1245 1195 1245 1244 1196 1197 1246 1196 1246 1245 1197 1198 1247 1197 1247 1246 1198 1199 1248 1198 1248 1247 1199 1200 1249 1199 1249 1248 1200 1201 1250 1200 1250 1249 1201 1202 1251 1201 1251 1250 1202 1203 1252 1202 1252 1251 1203 1204 1253 1203 1253 1252 1204 1205 1254 1204 1254 1253 1205 1206 1255 1205 1255 1254 1206 1207 1256 1206 1256 1255 1207 1208 1257 1207 1257 1256 1208 1209 1258 1208 1258 1257 1209 1210 1259 1209 1259 1258 1210 1211 1260 1210 1260 1259 1211 1212 1261 1211 1261 1260 1212 1213 1262 1212 1262 1261 1213 1214 1263 1213 1263 1262 1214 1215 1264 1214 1264 1263 1215 1216 1265 1215 1265 1264 1216 1217 1266 1216 1266 1265 1217 1218 1267 1217 1267 1266 1218 1219 1268 1218 1268 1267 1219 1220 1269 1219 1269 1268 1220 1221 1270 1220 1270 1269 1221 1222 1271 1221 1271 1270 1222 1223 1272 1222 1272 1271 1223 1224 1273 1223 1273 1272 1225 1226 1275 1225 1275 1274 1226 1227 1276 1226 1276 1275 1227 1228 1277 1227 1277 1276 1228 1229 1278 1228 1278 1277 1229 1230 1279 1229 1279 1278 1230 1231 1280 1230 1280 1279 1231 1232 1281 1231 1281 1280 1232 1233 1282 1232 1282 1281 1233 1234 1283 1233 1283 1282 1234 1235 1284 1234 1284 1283 1235 1236 1285 1235 1285 1284 1236 1237 1286 1236 1286 1285 1237 1238 1287 1237 1287 1286 1238 1239 1288 1238 1288 1287 1239 1240 1289 1239 1289 1288 1240 1241 1290 1240 1290 1289 1241 1242 1291 1241 1291 1290 1242 1243 1292 1242 1292 1291 1243 1244 1293 1243 1293 1292 1244 1245 1294 1244 1294 1293 1245 1246 1295 1245 1295 1294 1246 1247 1296 1246 1296 1295 1247 1248 1297 1247 1297 1296 1248 1249 1298 1248 1298 1297 1249 1250 1299 1249 1299 1298 1250 1251 1300 1250 1300 1299 1251 1252 1301 1251 1301 1300 1252 1253 1302 1252 1302 1301 1253 1254 1303 1253 1303 1302 1254 1255 1304 1254 1304 1303 1255 1256 1305 1255 1305 1304 1256 1257 1306 1256 1306 1305 1257 1258 1307 1257 1307 1306 1258 1259 1308 1258 1308 1307 1259 1260 1309 1259 1309 1308 1260 1261 1310 1260 1310 1309 1261 1262 1311 1261 1311 1310 1262 1263 1312 1262 1312 1311 1263 1264 1313 1263 1313 1312 1264 1265 1314 1264 1314 1313 1265 1266 1315 1265 1315 1314 1266 1267 1316 1266 1316 1315 1267 1268 1317 1267 1317 1316 1268 1269 1318 1268 1318 1317 1269 1270 1319 1269 1319 1318 1270 1271 1320 1270 1320 1319 1271 1272 1321 1271 1321 1320 1272 1273 1322 1272 1322 1321 1274 1275 1324 1274 1324 1323 1275 1276 1325 1275 1325 1324 1276 1277 1326 1276 1326 1325 1277 1278 1327 1277 1327 1326 1278 1279 1328 1278 1328 1327 1279 1280 1329 1279 1329 1328 1280 1281 1330 1280 1330 1329 1281 1282 1331 1281 1331 1330 1282 1283 1332 1282 1332 1331 1283 1284 1333 1283 1333 1332 1284 1285 1334 1284 1334 1333 1285 1286 1335 1285 1335 1334 1286 1287 1336 1286 1336 1335 1287 1288 1337 1287 1337 1336 1288 1289 1338 1288 1338 1337 1289 1290 1339 1289 1339 1338 1290 1291 1340 1290 1340 1339 1291 1292 1341 1291 1341 1340 1292 1293 1342 1292 1342 1341 1293 1294 1343 1293 1343 1342 1294 1295 1344 1294 1344 1343 1295 1296 1345 1295 1345 1344 1296 1297 1346 1296 1346 1345 1297 1298 1347 1297 1347 1346 1298 1299 1348 1298 1348 1347 1299 1300 1349 1299 1349 1348 1300 1301 1350 1300 1350 1349 1301 1302 1351 1301 1351 1350 1302 1303 1352 1302 1352 1351 1303 1304 1353 1303 1353 1352 1304 1305 1354 1304 1354 1353 1305 1306 1355 1305 1355 1354 1306 1307 1356 1306 1356 1355 1307 1308 1357 1307 1357 1356 1308 1309 1358 1308 1358 1357 1309 1310 1359 1309 1359 1358 1310 1311 1360 1310 1360 1359 1311 1312 1361 1311 1361 1360 1312 1313 1362 1312 1362 1361 1313 1314 1363 1313 1363 1362 1314 1315 1364 1314 1364 1363 1315 1316 1365 1315 1365 1364 1316 1317 1366 1316 1366 1365 1317 1318 1367 1317 1367 1366 1318 1319 1368 1318 1368 1367 1319 1320 1369 1319 1369 1368 1320 1321 1370 1320 1370 1369 1321 1322 1371 1321 1371 1370 1323 1324 1373 1323 1373 1372 1324 1325 1374 1324 1374 1373 1325 1326 1375 1325 1375 1374 1326 1327 1376 1326 1376 1375 1327 1328 1377 1327 1377 1376 1328 1329 1378 1328 1378 1377 1329 1330 1379 1329 1379 1378 1330 1331 1380 1330 1380 1379 1331 1332 1381 1331 1381 1380 1332 1333 1382 1332 1382 1381 1333 1334 1383 1333 1383 1382 1334 1335 1384 1334 1384 1383 1335 1336 1385 1335 1385 1384 1336 1337 1386 1336 1386 1385 1337 1338 1387 1337 1387 1386 1338 1339 1388 1338 1388 1387 1339 1340 1389 1339 1389 1388 1340 1341 1390 1340 1390 1389 1341 1342 1391 1341 1391 1390 1342 1343 1392 1342 1392 1391 1343 1344 1393 1343 1393 1392 1344 1345 1394 1344 1394 1393 1345 1346 1395 1345 1395 1394 1346 1347 1396 1346 1396 1395 1347 1348 1397 1347 1397 1396 1348 1349 1398 1348 1398 1397 1349 1350 1399 1349 1399 1398 1350 1351 1400 1350 1400 1399 1351 1352 1401 1351 1401 1400 1352 1353 1402 1352 1402 1401 1353 1354 1403 1353 1403 1402 1354 1355 1404 1354 1404 1403 1355 1356 1405 1355 1405 1404 1356 1357 1406 1356 1406 1405 1357 1358 1407 1357 1407 1406 1358 1359 1408 1358 1408 1407 1359 1360 1409 1359 1409 1408 1360 1361 1410 1360 1410 1409 1361 1362 1411 1361 1411 1410 1362 1363 1412 1362 1412 1411 1363 1364 1413 1363 1413 1412 1364 1365 1414 1364 1414 1413 1365 1366 1415 1365 1415 1414 1366 1367 1416 1366 1416 1415 1367 1368 1417 1367 1417 1416 1368 1369 1418 1368 1418 1417 1369 1370 1419 1369 1419 1418 1370 1371 1420 1370 1420 1419 1372 1373 1422 1372 1422 1421 1373 1374 1423 1373 1423 1422 1374 1375 1424 1374 1424 1423 1375 1376 1425 1375 1425 1424 1376 1377 1426 1376 1426 1425 1377 1378 1427 1377 1427 1426 1378 1379 1428 1378 1428 1427 1379 1380 1429 1379 1429 1428 1380 1381 1430 1380 1430 1429 1381 1382 1431 1381 1431 1430 1382 1383 1432 1382 1432 1431 1383 1384 1433 1383 1433 1432 1384 1385 1434 1384 1434 1433 1385 1386 1435 1385 1435 1434 1386 1387 1436 1386 1436 1435 1387 1388 1437 1387 1437 1436 1388 1389 1438 1388 1438 1437 1389 1390 1439 1389 1439 1438 1390 1391 1440 1390 1440 1439 1391 1392 1441 1391 1441 1440 1392 1393 1442 1392 1442 1441 1393 1394 1443 1393 1443 1442 1394 1395 1444 1394 1444 1443 1395 1396 1445 1395 1445 1444 1396 1397 1446 1396 1446 1445 1397 1398 1447 1397 1447 1446 1398 1399 1448 1398 1448 1447 1399 1400 1449 1399 1449 1448 1400 1401 1450 1400 1450 1449 1401 1402 1451 1401 1451 1450 1402 1403 1452 1402 1452 1451 1403 1404 1453 1403 1453 1452 1404 1405 1454 1404 1454 1453 1405 1406 1455 1405 1455 1454 1406 1407 1456 1406 1456 1455 1407 1408 1457 1407 1457 1456 1408 1409 1458 1408 1458 1457 1409 1410 1459 1409 1459 1458 1410 1411 1460 1410 1460 1459 1411 1412 1461 1411 1461 1460 1412 1413 1462 1412 1462 1461 1413 1414 1463 1413 1463 1462 1414 1415 1464 1414 1464 1463 1415 1416 1465 1415 1465 1464 1416 1417 1466 1416 1466 1465 1417 1418 1467 1417 1467 1466 1418 1419 1468 1418 1468 1467 1419 1420 1469 1419 1469 1468 1421 1422 1471 1421 1471 1470 1422 1423 1472 1422 1472 1471 1423 1424 1473 1423 1473 1472 1424 1425 1474 1424 1474 1473 1425 1426 1475 1425 1475 1474 1426 1427 1476 1426 1476 1475 1427 1428 1477 1427 1477 1476 1428 1429 1478 1428 1478 1477 1429 1430 1479 1429 1479 1478 1430 1431 1480 1430 1480 1479 1431 1432 1481 1431 1481 1480 1432 1433 1482 1432 1482 1481 1433 1434 1483 1433 1483 1482 1434 1435 1484 1434 1484 1483 1435 1436 1485 1435 1485 1484 1436 1437 1486 1436 1486 1485 1437 1438 1487 1437 1487 1486 1438 1439 1488 1438 1488 1487 1439 1440 1489 1439 1489 1488 1440 1441 1490 1440 1490 1489 1441 1442 1491 1441 1491 1490 1442 1443 1492 1442 1492 1491 1443 1444 1493 1443 1493 1492 1444 1445 1494 1444 1494 1493 1445 1446 1495 1445 1495 1494 1446 1447 1496 1446 1496 1495 1447 1448 1497 1447 1497 1496 1448 1449 1498 1448 1498 1497 1449 1450 1499 1449 1499 1498 1450 1451 1500 1450 1500 1499 1451 1452 1501 1451 1501 1500 1452 1453 1502 1452 1502 1501 1453 1454 1503 1453 1503 1502 1454 1455 1504 1454 1504 1503 1455 1456 1505 1455 1505 1504 1456 1457 1506 1456 1506 1505 1457 1458 1507 1457 1507 1506 1458 1459 1508 1458 1508 1507 1459 1460 1509 1459 1509 1508 1460 1461 1510 1460 1510 1509 1461 1462 1511 1461 1511 1510 1462 1463 1512 1462 1512 1511 1463 1464 1513 1463 1513 1512 1464 1465 1514 1464 1514 1513 1465 1466 1515 1465 1515 1514 1466 1467 1516 1466 1516 1515 1467 1468 1517 1467 1517 1516 1468 1469 1518 1468 1518 1517</p></triangles>
      </mesh>
    </geometry>
  </library_geometries>
  <library_visual_scenes>
    <visual_scene id="Scene" name="Scene"><node id="mountain_terrain" name="mountain_terrain"><instance_geometry url="#mountain_terrain_mesh"><bind_material><technique_common><instance_material symbol="terrain_material" target="#terrain_material"/></technique_common></bind_material></instance_geometry></node></visual_scene>
  </library_visual_scenes>
  <scene><instance_visual_scene url="#Scene"/></scene>
</COLLADA>
